<svg width="69" height="19" viewBox="0 0 69 19" fill="none" xmlns="http://www.w3.org/2000/svg">
<g id="STRAMING SHORTLY APP LOGOS">
<mask id="mask0_338_7122" style="mask-type:alpha" maskUnits="userSpaceOnUse" x="0" y="0" width="69" height="19">
<rect id="Rectangle 17" y="0.978027" width="69" height="18" fill="#D9D9D9"/>
</mask>
<g mask="url(#mask0_338_7122)">
<g id="svgg_1_">
<path id="path1_1_" fill-rule="evenodd" clip-rule="evenodd" d="M39.2327 2.44959L39.6621 2.88351L38.177 4.34988C36.4583 6.0462 36.4019 6.08646 36.0235 5.88247C35.8946 5.81358 33.9899 3.95712 33.9899 3.90076C33.9899 3.85155 34.7969 3.08123 34.8657 3.06423C34.8899 3.05886 35.0948 3.28432 35.322 3.56525C35.5484 3.84708 35.8517 4.22195 35.9948 4.39909C36.3142 4.79365 36.2749 4.79633 36.6426 4.36331C36.8099 4.16648 37.3369 3.54199 37.8146 2.97655C38.5339 2.12482 38.6932 1.95304 38.7433 1.98078C38.7764 2.00046 38.9965 2.21071 39.2327 2.44959ZM33.0487 3.27985C33.1086 3.34606 33.1149 3.47578 33.131 5.06294L33.1489 6.77447L33.2356 6.86662C33.3305 6.96772 33.4441 6.98114 33.6857 6.92209C35.6772 6.4327 37.4594 6.84246 38.1224 7.94381C38.5474 8.64971 38.5465 8.6354 38.5617 12.4628L38.5751 15.7651L38.4686 15.8716L38.3622 15.978H36.9781H35.5949L35.4902 15.8734L35.3856 15.7687V12.8941C35.3856 9.39587 35.3873 9.41556 34.9597 9.1901C34.6895 9.04695 33.7957 9.10242 33.335 9.2903C33.1229 9.37709 33.131 9.24467 33.131 12.6668V15.8018L33.0361 15.8895L32.9413 15.9771H31.6199C30.7824 15.9771 30.2734 15.9637 30.2295 15.9405C30.0434 15.8411 30.0524 16.1722 30.0524 9.62402V3.55362L30.1535 3.45252C30.2698 3.33532 30.2921 3.33263 31.3228 3.2709C33.0406 3.16712 32.9458 3.16712 33.0487 3.27985ZM44.2787 5.09963C46.0886 5.25441 47.0763 6.06051 47.3975 7.64409C47.4727 8.0136 47.5165 13.9095 47.4458 14.0804C47.2427 14.5707 44.1552 15.0565 42.4124 14.8722C40.6418 14.6843 39.6245 14.0169 39.2962 12.827C39.1683 12.3626 39.2184 11.2702 39.3884 10.8417C39.9296 9.47639 41.5919 8.83223 43.7222 9.16326C44.2706 9.24825 44.395 9.13821 44.3574 8.6014C44.3091 7.91876 44.0792 7.64588 43.4511 7.52689C42.985 7.43832 41.7226 7.55283 41.0095 7.74698C40.6123 7.85524 40.5201 7.79887 40.3975 7.37032C40.3045 7.04197 40.0719 6.05783 40.0719 5.98983C40.0719 5.61586 42.0089 5.12378 43.7043 5.06742C43.7848 5.06473 44.0425 5.07905 44.2787 5.09963ZM26.564 5.1882C28.0215 5.44855 28.8222 6.20456 29.1291 7.6092C29.2257 8.05117 29.2812 13.8353 29.1917 14.0527C29.0825 14.3166 27.8193 14.6691 26.462 14.8149C22.979 15.1889 20.9946 14.16 21 11.9842C21.0054 9.85306 22.7527 8.75707 25.4967 9.16505C26.0415 9.24557 26.114 9.19099 26.1158 8.69266C26.1203 7.49558 25.0932 7.20123 22.8314 7.75235C22.3197 7.87671 22.3179 7.87492 22.0736 6.90419C21.807 5.844 21.8106 5.82879 22.3859 5.64001C23.8272 5.16583 25.4555 4.98958 26.564 5.1882ZM24.9438 10.7907C23.9399 10.9669 23.5964 12.3617 24.4481 12.8001C24.8776 13.0202 25.8161 13.0247 26.0335 12.8073C26.1641 12.6767 26.1632 11.06 26.0326 10.9374C25.8841 10.7969 25.3303 10.7227 24.9438 10.7907ZM42.9196 10.8685C42.1574 11.1342 41.9301 12.3313 42.5609 12.7617C43.0029 13.0632 44.1176 13.0757 44.2975 12.7813C44.4182 12.5827 44.403 11.1217 44.2787 10.9741C44.1105 10.7737 43.3589 10.7155 42.9196 10.8685Z" fill="#F46C33"/>
</g>
</g>
</g>
</svg>
