<svg width="297" height="157" viewBox="0 0 297 157" fill="none" xmlns="http://www.w3.org/2000/svg">
<path fill-rule="evenodd" clip-rule="evenodd" d="M204.6 5.59999L209.4 10.45L192.8 26.84C173.59 45.8 172.96 46.25 168.73 43.97C167.29 43.2 146 22.45 146 21.82C146 21.27 155.02 12.66 155.79 12.47C156.06 12.41 158.35 14.93 160.89 18.07C163.42 21.22 166.81 25.41 168.41 27.39C171.98 31.8 171.54 31.83 175.65 26.99C177.52 24.79 183.41 17.81 188.75 11.49C196.79 1.97 198.57 0.0499966 199.13 0.359997C199.5 0.579997 201.96 2.92999 204.6 5.59999ZM135.48 14.88C136.15 15.62 136.22 17.07 136.4 34.81L136.6 53.94L137.57 54.97C138.63 56.1 139.9 56.25 142.6 55.59C164.86 50.12 184.78 54.7 192.19 67.01C196.94 74.9 196.93 74.74 197.1 117.52L197.25 154.43L196.06 155.62L194.87 156.81H179.4H163.94L162.77 155.64L161.6 154.47V122.34C161.6 83.24 161.62 83.46 156.84 80.94C153.82 79.34 143.83 79.96 138.68 82.06C136.31 83.03 136.4 81.55 136.4 119.8V154.84L135.34 155.82L134.28 156.8H119.51C110.15 156.8 104.46 156.65 103.97 156.39C101.89 155.28 101.99 158.98 101.99 85.79V17.94L103.12 16.81C104.42 15.5 104.67 15.47 116.19 14.78C135.39 13.62 134.33 13.62 135.48 14.88ZM261 35.22C281.23 36.95 292.27 45.96 295.86 63.66C296.7 67.79 297.19 133.69 296.4 135.6C294.13 141.08 259.62 146.51 240.14 144.45C220.35 142.35 208.98 134.89 205.31 121.59C203.88 116.4 204.44 104.19 206.34 99.4C212.39 84.14 230.97 76.94 254.78 80.64C260.91 81.59 262.3 80.36 261.88 74.36C261.34 66.73 258.77 63.68 251.75 62.35C246.54 61.36 232.43 62.64 224.46 64.81C220.02 66.02 218.99 65.39 217.62 60.6C216.58 56.93 213.98 45.93 213.98 45.17C213.98 40.99 235.63 35.49 254.58 34.86C255.48 34.83 258.36 34.99 261 35.22ZM63 36.21C79.29 39.12 88.24 47.57 91.67 63.27C92.75 68.21 93.37 132.86 92.37 135.29C91.15 138.24 77.03 142.18 61.86 143.81C22.93 147.99 0.749997 136.49 0.809997 112.17C0.869997 88.35 20.4 76.1 51.07 80.66C57.16 81.56 57.97 80.95 57.99 75.38C58.04 62 46.56 58.71 21.28 64.87C15.56 66.26 15.54 66.24 12.81 55.39C9.83 43.54 9.87 43.37 16.3 41.26C32.41 35.96 50.61 33.99 63 36.21ZM44.89 98.83C33.67 100.8 29.83 116.39 39.35 121.29C44.15 123.75 54.64 123.8 57.07 121.37C58.53 119.91 58.52 101.84 57.06 100.47C55.4 98.9 49.21 98.07 44.89 98.83ZM245.81 99.7C237.29 102.67 234.75 116.05 241.8 120.86C246.74 124.23 259.2 124.37 261.21 121.08C262.56 118.86 262.39 102.53 261 100.88C259.12 98.64 250.72 97.99 245.81 99.7Z" fill="#F46C33"/>
</svg>
