<svg width="60" height="24" viewBox="0 0 60 24" fill="none" xmlns="http://www.w3.org/2000/svg">
<path d="M37.121 8.6655L36.2276 7.10429L34.6393 7.88941L33.7459 6.32821L32.1576 7.11332L31.2642 5.55212L29.6759 6.33723L28.7825 4.77603L27.1943 5.56114L26.3009 3.99994L24.7126 4.78505L21.3285 16.0835L25.4255 17.3739C25.6962 16.4625 26.5265 15.7947 27.5011 15.7947C28.7013 15.7947 29.6759 16.7964 29.6759 18.0327V18.0778C29.685 18.2764 29.6669 18.4839 29.6038 18.6825L33.773 20" fill="#D70B17"/>
<path d="M24.8388 15.1449C24.6222 15.1088 24.4779 14.9193 24.4779 14.6937V9.14377C24.4779 8.88207 24.6764 8.68353 24.9291 8.68353H28.8095C28.9088 8.68353 29.0081 8.69256 29.1073 8.71061C29.9376 8.86402 30.5512 9.60401 30.5512 10.4794V14.6937C30.5512 14.82 30.5061 14.9374 30.4158 15.0276C30.3346 15.1088 30.2173 15.163 30.1 15.163L30.0188 15.1539C29.8022 15.1178 29.6578 14.9283 29.6578 14.7027V10.4974C29.6578 10.0733 29.36 9.7123 28.9539 9.64011L28.8095 9.62206H27.9612V14.7027C27.9612 14.8291 27.9161 14.9464 27.8259 15.0366C27.7447 15.1178 27.6273 15.172 27.51 15.172L27.4288 15.163C27.2122 15.1269 27.0678 14.9374 27.0678 14.7118V9.62206H25.3713V14.7027C25.3713 14.8291 25.3261 14.9464 25.2359 15.0276C25.1547 15.1088 25.0374 15.163 24.92 15.163L24.8388 15.1449Z" fill="white"/>
<path d="M31.291 17.5632C31.0744 17.5271 30.9301 17.3376 30.9301 17.112C30.9301 16.9857 30.9752 16.8684 31.0564 16.7871C31.1376 16.7059 31.2549 16.6518 31.3723 16.6518C31.7513 16.6518 32.0761 16.3991 32.1844 16.0291L32.6447 14.4408L31.1376 9.23381C31.0654 8.99016 31.2008 8.72845 31.4354 8.64723L31.634 8.63821C31.7964 8.66528 31.9318 8.79162 31.9859 8.95406L33.1049 12.8345L34.242 8.95406C34.2961 8.73748 34.5217 8.59309 34.7564 8.63821L34.7834 8.64723C35.0271 8.72845 35.1625 8.99016 35.0812 9.23381L33.5291 14.5762L33.0417 16.2908C32.9154 16.6879 32.6988 17.0037 32.41 17.2203C32.1032 17.4549 31.7422 17.5813 31.3632 17.5813L31.291 17.5632Z" fill="white"/>
<path d="M3.37899 15.0909C3.15338 15.0457 2.99997 14.8562 2.99997 14.6216V6.3373C2.99997 6.20193 3.04509 6.08462 3.13533 5.99437C3.21655 5.90413 3.34289 5.85901 3.46923 5.85901L3.55045 5.86803C3.77606 5.91316 3.93849 6.10266 3.93849 6.3373V8.69263H4.82288C4.93117 8.69263 5.03043 8.70166 5.13873 8.71971C6.00506 8.87312 6.63676 9.64921 6.63676 10.5607V13.2319C6.63676 14.2606 5.82457 15.0999 4.82288 15.0999H3.47826L3.37899 15.0909ZM3.92947 14.1343H4.81385C5.30116 14.1343 5.69823 13.7282 5.69823 13.2228V10.5516C5.69823 10.1094 5.3914 9.73043 4.96726 9.65823L4.81385 9.64018H3.92947V14.1343Z" fill="white"/>
<path d="M9.30795 15.1269C8.44161 14.9735 7.81894 14.1974 7.81894 13.2859V10.5064C7.81894 10.0011 8.00845 9.54085 8.35137 9.17988C8.6943 8.82793 9.14551 8.62939 9.63282 8.62939C9.74111 8.62939 9.84038 8.63842 9.94867 8.65647C10.815 8.80988 11.4467 9.58597 11.4467 10.4974V13.2769C11.4467 13.7732 11.2572 14.2425 10.9143 14.6035C10.5713 14.9554 10.1201 15.1449 9.64185 15.1449C9.52453 15.154 9.41624 15.1449 9.30795 15.1269ZM9.77721 9.60402L9.6238 9.58597C9.12746 9.58597 8.73942 9.98304 8.73942 10.4974V13.2769C8.73942 13.7191 9.04624 14.0981 9.46136 14.1703L9.61477 14.1884C10.1021 14.1884 10.4992 13.7823 10.4992 13.2769V10.4974C10.5082 10.0552 10.2014 9.68524 9.77721 9.60402Z" fill="white"/>
<path d="M14.1269 15.1269C13.2606 14.9645 12.6379 14.1974 12.6379 13.2859V10.5065C12.6379 9.47769 13.4501 8.63843 14.4518 8.63843C14.5601 8.63843 14.6594 8.64745 14.7677 8.6655C15.625 8.81891 16.2567 9.595 16.2567 10.4974V13.2769C16.2567 13.7732 16.0672 14.2425 15.7242 14.6035C15.3813 14.9554 14.9301 15.1449 14.4428 15.1449C14.3345 15.154 14.2262 15.1449 14.1269 15.1269ZM14.5962 9.60403L14.4428 9.58598C13.9465 9.58598 13.5584 9.98305 13.5584 10.4974V13.2769C13.5584 13.7191 13.8652 14.0981 14.2804 14.1703L14.4338 14.1884C14.6684 14.1884 14.885 14.0981 15.0564 13.9267C15.2279 13.7552 15.3182 13.5296 15.3182 13.2769V10.4974C15.3272 10.0552 15.0204 9.68524 14.5962 9.60403Z" fill="white"/>
<path d="M17.8269 15.145C17.6013 15.1089 17.4479 14.9104 17.4479 14.6757V6.3373C17.4479 6.20193 17.493 6.08462 17.5833 5.99437C17.6735 5.90413 17.7908 5.85901 17.9172 5.85901L17.9984 5.86803C18.224 5.91316 18.3864 6.10266 18.3864 6.3373V11.2736L20.5252 8.80093C20.6335 8.68361 20.7959 8.62044 20.9584 8.65654L21.193 8.76483C21.3825 8.94531 21.4005 9.24312 21.2291 9.44165L19.5957 11.2916L21.2742 14.4501C21.3374 14.5584 21.3464 14.6848 21.3193 14.8021C21.2832 14.9194 21.202 15.0277 21.0937 15.0909C21.0035 15.145 20.8952 15.163 20.7869 15.145C20.6425 15.1179 20.5342 15.0367 20.462 14.9194L18.955 12.0677L18.3774 12.7175V14.6757C18.3774 14.8021 18.3323 14.9284 18.242 15.0187C18.1518 15.1089 18.0345 15.154 17.9172 15.154L17.8269 15.145Z" fill="white"/>
<path d="M38.3391 15.136C37.8247 15.0457 37.3915 14.7299 37.1298 14.2606C37.0667 14.1523 37.0576 14.017 37.0847 13.8906C37.1208 13.7643 37.193 13.665 37.3013 13.6018C37.3915 13.5477 37.4998 13.5297 37.6081 13.5477C37.7435 13.5748 37.8608 13.656 37.933 13.7823C38.0593 13.9989 38.2488 14.1343 38.4835 14.1794C38.7452 14.2245 38.9798 14.1523 39.1693 13.9718C39.3498 13.8004 39.4401 13.5567 39.422 13.3131C39.413 13.0604 39.2866 12.8348 39.0881 12.6904L37.8337 11.7699C37.4186 11.4721 37.1659 11.0029 37.1208 10.4704C37.0937 9.92896 37.2923 9.4236 37.6623 9.08068C38.0323 8.71971 38.5376 8.55727 39.043 8.62946C39.5664 8.72873 39.9996 9.03556 40.2432 9.47775C40.2974 9.58604 40.3154 9.71238 40.2883 9.83872C40.2522 9.96506 40.18 10.0734 40.0718 10.1275C39.9815 10.1816 39.8732 10.1997 39.7649 10.1816C39.6296 10.1546 39.5123 10.0734 39.4401 9.95603C39.3318 9.76652 39.1423 9.63116 38.9076 9.58604C38.673 9.54994 38.4474 9.61311 38.2759 9.77555C38.1135 9.92896 38.0232 10.1546 38.0413 10.3982C38.0503 10.6238 38.1767 10.8494 38.3662 10.9758L39.6205 11.8782C40.0537 12.1941 40.3154 12.6904 40.3425 13.2319C40.3876 13.7733 40.18 14.2967 39.783 14.6577C39.404 15.0187 38.8805 15.1901 38.3571 15.1179" fill="white"/>
<path d="M41.9399 15.154C41.7143 15.1088 41.5519 14.9103 41.5519 14.6847V6.34627C41.5519 6.21993 41.606 6.09359 41.6963 6.00335C41.7865 5.9131 41.9039 5.86798 42.0212 5.86798L42.1024 5.877C42.328 5.92213 42.4814 6.11164 42.4814 6.34627V8.70161H43.3658C43.4741 8.70161 43.5824 8.71063 43.6816 8.72868C44.548 8.88209 45.1706 9.65818 45.1706 10.5696V14.6847C45.1706 14.9554 44.9631 15.163 44.7104 15.163L44.6292 15.154C44.4036 15.1179 44.2411 14.9193 44.2411 14.6847V10.5696C44.2411 10.1274 43.9343 9.74842 43.5192 9.67623L43.3568 9.65818H42.4724V14.6847C42.4724 14.9554 42.2648 15.163 42.0031 15.163L41.9399 15.154Z" fill="white"/>
<path d="M47.8506 15.1269C46.9842 14.9735 46.3616 14.1974 46.3616 13.2859V10.5065C46.3616 9.47769 47.1738 8.63843 48.1755 8.63843C48.2837 8.63843 48.383 8.64745 48.4913 8.6655C49.3576 8.81891 49.9893 9.595 49.9893 10.5065V13.2859C49.9893 13.7823 49.7998 14.2515 49.4569 14.6125C49.114 14.9645 48.6628 15.154 48.1845 15.154C48.0672 15.154 47.9589 15.1449 47.8506 15.1269ZM48.3289 9.61305L48.1755 9.595C47.9408 9.595 47.7152 9.68524 47.5528 9.85671C47.3903 10.0282 47.3001 10.2538 47.3001 10.4974V13.2769C47.3001 13.7191 47.6069 14.0981 48.022 14.1703L48.1755 14.1884C48.4101 14.1884 48.6267 14.0981 48.7981 13.9267C48.9696 13.7552 49.0598 13.5296 49.0598 13.2769V10.4974C49.0508 10.0643 48.744 9.68525 48.3289 9.61305Z" fill="white"/>
<path d="M57.1366 9.22502C57.1637 9.09868 57.1457 8.98136 57.0915 8.87307C57.0283 8.76478 56.92 8.68356 56.7937 8.65649L56.7125 8.64746C56.5049 8.64746 56.3154 8.79185 56.2613 9.00843C56.2613 9.02648 55.7559 11.1111 55.3679 12.6994L55.3588 12.7355L55.3498 12.6994C54.9708 11.1201 54.4564 9.03551 54.4474 9.00843C54.4113 8.81892 54.2759 8.68356 54.0864 8.65649L54.0052 8.64746C53.7976 8.64746 53.6262 8.79185 53.563 9.00843C53.554 9.02648 53.0577 11.1111 52.6696 12.6994L52.6606 12.7355L52.6516 12.6994C52.2725 11.1111 51.7582 9.03551 51.7582 9.00843C51.713 8.82795 51.5686 8.68356 51.3972 8.65649L51.2167 8.66551C50.973 8.72868 50.8196 8.98136 50.8828 9.23404L52.2274 14.793C52.2816 14.9735 52.4169 15.1179 52.5884 15.1449L52.6606 15.154C52.8772 15.154 53.0577 15.0096 53.1028 14.793C53.1118 14.775 53.6172 12.6903 54.0052 11.1021L54.0142 11.066L54.0233 11.1021C54.4203 12.6994 54.9167 14.793 54.9167 14.793C54.9708 14.9735 55.1062 15.1088 55.2776 15.1449L55.3498 15.154C55.5664 15.154 55.7469 15.0096 55.792 14.793" fill="white"/>
</svg>
