<svg width="174" height="46" viewBox="0 0 174 46" fill="none" xmlns="http://www.w3.org/2000/svg">
<g id="HOTSTAR LOGO">
<mask id="mask0_1425_30496" style="mask-type:alpha" maskUnits="userSpaceOnUse" x="0" y="0" width="174" height="46">
<rect id="Rectangle 17" width="173.778" height="46" fill="#3E3E3E"/>
</mask>
<g mask="url(#mask0_1425_30496)">
<g id="Group 40">
<path id="path2" d="M119.434 16.0065C122.175 16.0065 124.489 17.0124 125.947 19.1501H126.023V16.5094H129.544V35.2958H126.023V32.3785H125.947C124.614 34.6168 122.25 35.7737 119.585 35.7737C114.102 35.7737 109.626 31.6492 109.626 26.217C109.626 20.2064 113.926 16.0065 119.434 16.0065ZM63.4016 16.0065C68.5823 16.0065 73.4612 20.0806 73.4109 26.0409C73.3355 31.1462 68.9847 35.9497 62.798 35.7737C57.5418 35.6228 53.0904 31.0959 53.1407 25.8649C53.191 20.1812 57.6927 16.0065 63.4016 16.0065ZM91.7949 16.0065C94.9134 16.0065 97.4535 18.1693 97.5541 21.489H94.0332C93.8571 20.1309 93.0775 19.2255 91.6189 19.2255C90.2608 19.2255 89.4057 20.1309 89.4057 21.2123C89.4057 22.7967 91.0404 23.2745 92.9015 23.853C95.5421 24.6577 97.9816 26.2673 97.9816 29.7379C97.9816 33.3593 95.3409 35.7485 91.6692 35.7485C88.274 35.7485 85.0298 33.4348 85.0298 29.1091H88.5507C88.7267 31.3726 89.8836 32.5294 91.7446 32.5294C93.3793 32.5294 94.4607 31.4732 94.4607 29.9642C94.4607 28.6816 93.4799 27.8265 91.2668 27.1224C86.6645 25.6637 85.8849 23.6769 85.8849 21.5393C85.91 18.2196 88.7267 16.0065 91.7949 16.0065ZM33.2227 10.2222C35.1591 10.2222 36.7435 11.8066 36.7435 13.743V18.5214H36.819C37.9255 16.8615 39.7363 16.0065 42.0751 16.0065C46.5517 16.0065 49.8965 18.8483 49.8965 24.0039V35.2958H46.3756V25.0853C46.3756 21.0614 44.8164 19.2255 41.6979 19.2255C38.6046 19.2255 36.7435 21.4638 36.7435 25.1104V35.2707H33.2227V10.2222ZM80.9305 10.2222V16.5346H84.0238V19.7537H80.9305V35.321C78.994 35.321 77.4096 33.7366 77.4096 31.8001V19.7788H75.951V16.5597H77.4096V10.2473H80.9305V10.2222ZM105.401 10.2222V16.5346H108.494V19.7537H105.401V35.321C103.464 35.321 101.88 33.7366 101.88 31.8001V19.7788H100.421V16.5597H101.88V10.2473L105.401 10.2222ZM142.219 16.0065V19.6279C139.176 19.7285 137.617 21.5896 137.617 24.7583V31.7749C137.617 33.7114 136.032 35.2958 134.096 35.2958V16.5094H137.39V18.1944H137.466C138.296 16.9621 139.754 16.1322 142.219 16.0065ZM63.2255 19.2255C59.1765 19.2255 55.7562 23.1488 56.8628 27.5247C57.5921 30.4923 60.3082 32.63 63.3513 32.5546C66.9476 32.454 69.8649 29.5618 69.8649 25.8398C69.8649 22.168 66.9224 19.2255 63.2255 19.2255ZM119.534 19.2255C115.812 19.2255 112.82 22.5955 113.146 26.5691C113.423 29.8385 116.114 32.4791 119.383 32.5546C123.106 32.63 126.048 29.5367 126.048 25.9404C126.098 22.2686 123.432 19.2255 119.534 19.2255Z" fill="#ECEDF0"/>
</g>
</g>
</g>
</svg>
