<svg width="52" height="13" viewBox="0 0 52 13" fill="none" xmlns="http://www.w3.org/2000/svg">
<g id="Group 40">
<path id="path2" d="M40.4816 3.69412C41.7688 3.69412 42.8552 4.16648 43.5401 5.17026H43.5756V3.9303H45.2288V12.7517H43.5756V11.3818H43.5401C42.9142 12.4328 41.8042 12.9761 40.5524 12.9761C37.978 12.9761 35.876 11.0394 35.876 8.48861C35.876 5.66624 37.8954 3.69412 40.4816 3.69412ZM14.1709 3.69412C16.6036 3.69412 18.8946 5.60719 18.8709 8.40595C18.8355 10.8032 16.7925 13.0587 13.8875 12.9761C11.4194 12.9052 9.32918 10.7796 9.3528 8.32328C9.37642 5.65443 11.4902 3.69412 14.1709 3.69412ZM27.5034 3.69412C28.9677 3.69412 30.1604 4.7097 30.2077 6.2685H28.5544C28.4717 5.63081 28.1056 5.20568 27.4207 5.20568C26.783 5.20568 26.3815 5.63081 26.3815 6.1386C26.3815 6.88257 27.1491 7.10695 28.023 7.37856C29.2629 7.75645 30.4084 8.51223 30.4084 10.1419C30.4084 11.8424 29.1685 12.9643 27.4443 12.9643C25.8501 12.9643 24.3267 11.8778 24.3267 9.84666H25.98C26.0627 10.9095 26.6059 11.4527 27.4798 11.4527C28.2473 11.4527 28.7551 10.9567 28.7551 10.2482C28.7551 9.6459 28.2946 9.24439 27.2554 8.91374C25.0943 8.22881 24.7282 7.29589 24.7282 6.29212C24.74 4.73332 26.0627 3.69412 27.5034 3.69412ZM0 0.978027C0.9093 0.978027 1.65327 1.722 1.65327 2.6313V4.87503H1.6887C2.2083 4.09563 3.05855 3.69412 4.1568 3.69412C6.25882 3.69412 7.82943 5.02855 7.82943 7.44941V12.7517H6.17615V7.9572C6.17615 6.06775 5.44399 5.20568 3.97966 5.20568C2.52714 5.20568 1.65327 6.25669 1.65327 7.96901V12.7399H0V0.978027ZM22.4018 0.978027V3.94211H23.8544V5.45367H22.4018V12.7635C21.4925 12.7635 20.7486 12.0195 20.7486 11.1102V5.46548H20.0636V3.95392H20.7486V0.989837H22.4018V0.978027ZM33.8921 0.978027V3.94211H35.3446V5.45367H33.8921V12.7635C32.9828 12.7635 32.2388 12.0195 32.2388 11.1102V5.46548H31.5539V3.95392H32.2388V0.989837L33.8921 0.978027ZM51.1806 3.69412V5.39463C49.7517 5.44186 49.0195 6.31574 49.0195 7.80368V11.0984C49.0195 12.0077 48.2756 12.7517 47.3663 12.7517V3.9303H48.9133V4.72151H48.9487C49.3384 4.14286 50.0233 3.75316 51.1806 3.69412ZM14.0882 5.20568C12.187 5.20568 10.5809 7.0479 11.1005 9.10268C11.443 10.4962 12.7184 11.4999 14.1473 11.4645C15.836 11.4173 17.2058 10.0592 17.2058 8.31148C17.2058 6.58735 15.8242 5.20568 14.0882 5.20568ZM40.5288 5.20568C38.7811 5.20568 37.3758 6.7881 37.5293 8.65394C37.6592 10.1891 38.9228 11.4291 40.458 11.4645C42.2057 11.4999 43.5874 10.0474 43.5874 8.35871C43.611 6.63458 42.3592 5.20568 40.5288 5.20568Z" fill="white"/>
</g>
</svg>
