<svg width="40" height="24" viewBox="0 0 40 24" fill="none" xmlns="http://www.w3.org/2000/svg">
<path d="M9.77778 17V7H7V17H9.77778ZM15.6806 7L15.0556 11.6528L14.7083 9.15278L14.3611 7H10.8889V17H13.25V10.4028L14.2222 17H15.9583L16.8611 10.2639V17H19.2222V7H15.6806ZM20.3333 17V7H24.6389C25.6806 7 26.4444 7.76389 26.4444 8.73611V15.2639C26.4444 16.2361 25.6806 17 24.6389 17H20.3333ZM23.5972 8.80556L22.9722 8.73611V15.2639C23.3194 15.2639 23.5972 15.1944 23.6667 15.0556C23.8056 14.9167 23.8056 14.5 23.8056 13.8056V9.91667V9.08333L23.5972 8.80556ZM31.6528 9.5H31.8611C32.8333 9.5 33.6667 10.2639 33.6667 11.2361V15.2639C33.6667 16.2361 32.8333 17 31.8611 17H31.6528C31.0972 17 30.5417 16.7222 30.1944 16.2361L30.0556 16.8611H27.5556V7H30.1944V10.1944C30.5417 9.77778 31.0972 9.5 31.6528 9.5ZM31.0972 14.3611V12L31.0278 11.2361C30.9583 11.0972 30.75 11.0278 30.6111 11.0278C30.4722 11.0278 30.2639 11.0972 30.1944 11.2361V15.1944C30.2639 15.3333 30.4722 15.4028 30.6111 15.4028C30.75 15.4028 31.0278 15.3333 31.0278 15.1944L31.0972 14.3611Z" fill="#F5C518"/>
</svg>
