<svg width="69" height="19" viewBox="0 0 69 19" fill="none" xmlns="http://www.w3.org/2000/svg">
<g id="MX PLAYER LOGO">
<mask id="mask0_2060_8233" style="mask-type:alpha" maskUnits="userSpaceOnUse" x="0" y="0" width="69" height="19">
<rect id="Rectangle 17" y="0.978027" width="69" height="18" fill="#D9D9D9"/>
</mask>
<g mask="url(#mask0_2060_8233)">
<g id="svgg">
<path id="path0" fill-rule="evenodd" clip-rule="evenodd" d="M12.4021 2.99248C12.0344 3.02258 11.5465 3.1075 11.0215 3.2327C10.8745 3.26775 10.5761 3.36982 10.2696 3.49008C10.0581 3.57311 9.51502 3.83746 9.4141 3.90653C9.3635 3.94129 9.31319 3.96964 9.30228 3.96964C9.24542 3.96964 8.50761 4.50345 8.28266 4.70731C7.85821 5.09192 7.35261 5.66019 7.15035 5.9798C7.10353 6.05381 7.04536 6.13626 7.02137 6.16287C6.99723 6.18948 6.94503 6.27426 6.90533 6.35118C6.86563 6.42825 6.82128 6.50546 6.80674 6.52291C6.72153 6.62557 6.41181 7.31627 6.28021 7.69695C5.93195 8.7048 5.80457 10.0991 5.9763 11.0221C6.00233 11.1619 6.04174 11.3801 6.06369 11.5067C6.09568 11.6912 6.29475 12.3485 6.39043 12.5852C6.45587 12.7471 6.70321 13.2623 6.77446 13.385C6.82099 13.465 6.88643 13.5794 6.92002 13.6395C6.95361 13.6994 7.02646 13.8084 7.08215 13.8817C7.1377 13.955 7.18961 14.0313 7.19746 14.0514C7.26449 14.2214 8.19876 15.223 8.45206 15.3964C8.51052 15.4364 8.58555 15.4942 8.61885 15.5247C8.69548 15.5951 9.23452 15.9612 9.29283 15.9825C9.31682 15.9912 9.38124 16.0287 9.43606 16.0658C9.58452 16.1664 10.1627 16.4367 10.4454 16.5379C11.7645 17.0095 12.9533 17.0973 14.3288 16.8244C14.5555 16.7795 14.8227 16.7158 14.9227 16.6829C15.2981 16.5593 15.5379 16.4721 15.6705 16.4105C15.7457 16.3756 15.8836 16.312 15.9769 16.2688C16.0701 16.2257 16.2065 16.1548 16.2798 16.1111C16.3531 16.0675 16.4622 16.0047 16.5222 15.9717C16.5821 15.9385 16.6858 15.8712 16.7524 15.8219C16.819 15.7728 16.89 15.7262 16.9099 15.7185C17.2062 15.6051 18.3843 14.4161 18.667 13.9454C18.6936 13.901 18.7583 13.8004 18.8107 13.7218C18.9735 13.4775 19.1088 13.2204 19.3446 12.7064C19.7749 11.7693 19.9811 10.2582 19.8341 9.11951C19.8117 8.94632 19.787 8.7554 19.7791 8.69549C19.7178 8.22276 19.3465 7.16737 19.0717 6.68417C19.0224 6.59736 18.9747 6.5088 18.966 6.48743C18.9571 6.46605 18.8971 6.36877 18.8326 6.27135C18.7682 6.17407 18.7045 6.07708 18.6912 6.05614C18.3243 5.47741 17.5018 4.64115 16.9099 4.2452C16.85 4.20506 16.7518 4.13876 16.6918 4.09804C16.5325 3.98986 16.1321 3.75865 16.0496 3.72724C16.0105 3.71241 15.8799 3.65236 15.7595 3.59376C15.6391 3.53516 15.4753 3.46565 15.3953 3.43933C15.3153 3.41301 15.1517 3.35703 15.0318 3.315C14.348 3.07551 13.1626 2.9301 12.4021 2.99248ZM11.1267 7.12447C11.2485 7.1934 11.4352 7.30086 11.5419 7.36309C11.6485 7.42518 11.7847 7.50327 11.8448 7.53628C11.9048 7.56943 12.1119 7.68692 12.3053 7.79758C12.4986 7.90809 12.8856 8.12941 13.1656 8.2895C13.4455 8.4496 13.7835 8.64314 13.9169 8.71992C14.0502 8.79655 14.4046 8.99824 14.7046 9.16793C15.0044 9.33777 15.2989 9.5063 15.3589 9.54251C15.4188 9.57871 15.6207 9.69388 15.8072 9.79828C16.1997 10.018 16.2555 10.0618 16.2555 10.1492C16.2555 10.2533 16.2702 10.2441 14.2683 11.3843C13.2086 11.9879 12.2326 12.5449 12.0993 12.6224C10.8849 13.3283 10.8795 13.3307 10.7892 13.2403L10.7295 13.1805L10.7357 10.1361L10.7421 7.09161L10.7993 7.04537C10.8769 6.98241 10.8759 6.98212 11.1267 7.12447Z" fill="#3C8CEC"/>
<path id="path1" fill-rule="evenodd" clip-rule="evenodd" d="M46.9933 6.9623C46.935 7.00316 46.8034 7.23277 46.6987 7.47677C46.6597 7.56721 46.5818 7.73938 46.5252 7.85934C46.4687 7.97931 46.3583 8.21647 46.2799 8.38646C46.2014 8.5563 46.0726 8.83447 45.9934 9.00445C45.9143 9.17429 45.7822 9.4606 45.6997 9.64062C45.6171 9.8205 45.5088 10.055 45.4588 10.1616C45.4088 10.2682 45.2998 10.5028 45.217 10.6826C45.0473 11.0505 44.8107 11.5627 44.6349 11.9429C44.5702 12.0828 44.4509 12.3392 44.3699 12.5125C44.1534 12.9758 44.1741 13.0445 44.5255 13.0299C44.8073 13.0179 44.7852 13.0454 45.1424 12.264C45.2231 12.0874 45.3551 11.7984 45.4358 11.6218C45.5166 11.4452 45.6229 11.2189 45.6721 11.1189L45.7617 10.9371L47.0638 10.9309L48.366 10.9246L48.4423 11.0758C48.4843 11.1589 48.554 11.3089 48.5972 11.4093C48.6789 11.5989 49.07 12.4566 49.1122 12.5384C49.1255 12.5641 49.1731 12.6659 49.2182 12.7646C49.3235 12.9958 49.3806 13.0333 49.6278 13.0333C49.9608 13.0336 49.9873 12.9544 49.7938 12.5376C49.7254 12.3905 49.5445 12.0028 49.3918 11.6764C49.1013 11.0552 48.9009 10.6256 48.7304 10.2586C48.6747 10.1387 48.5527 9.87691 48.4595 9.67698C48.3663 9.47704 48.2296 9.18258 48.1557 9.02263C48.0818 8.86268 47.9649 8.61184 47.896 8.46512C47.8271 8.31855 47.7074 8.06234 47.6302 7.89569C47.1919 6.95111 47.1329 6.86459 46.9933 6.9623ZM21.8697 6.97786C21.7544 7.0449 21.7568 6.98063 21.7568 10.0263V12.8853L21.8153 12.9534L21.8738 13.0214L22.5032 13.0285L23.1329 13.0358L23.2022 12.9762L23.2714 12.9166L23.2837 11.6184L23.2957 10.3201L23.4896 10.5394C23.7337 10.8155 24.1048 11.2359 24.3824 11.5509C24.77 11.9909 24.8305 11.9761 25.404 11.3006C25.4833 11.2074 25.603 11.0706 25.67 10.9967C25.737 10.9227 25.901 10.7377 26.0342 10.5855L26.2766 10.3086L26.2887 11.6098L26.3009 12.9111L26.356 12.9662C26.4107 13.0208 26.4175 13.0214 27.055 13.0214H27.6986L27.745 12.9641C27.7901 12.9086 27.7914 12.8266 27.7914 10.037C27.7914 6.75117 27.8053 6.95183 27.5765 6.95082C27.5004 6.95053 27.2756 7.08416 27.2538 7.14276C27.2496 7.15425 27.1751 7.23858 27.0885 7.3299C27.0018 7.42122 26.4463 8.02322 25.8541 8.66768L24.7772 9.83954L24.7279 9.77033C24.7008 9.73223 24.639 9.66302 24.5906 9.61634C24.542 9.56966 24.3075 9.31883 24.0693 9.05898C22.0311 6.83492 22.0632 6.86531 21.8697 6.97786ZM28.51 7.09172C28.4299 7.18027 28.483 7.31391 28.7383 7.66682C28.786 7.73269 28.846 7.82197 28.8716 7.8653C28.8972 7.90849 29.0819 8.18433 29.2818 8.47806C29.4818 8.77179 29.6835 9.07119 29.7301 9.14332C29.7768 9.21559 29.9231 9.43574 30.0553 9.63277C30.3442 10.0635 30.3441 9.97158 30.0567 10.393C29.712 10.8984 29.4845 11.2337 29.415 11.3386C29.3817 11.389 29.2564 11.5733 29.1364 11.7482C29.0165 11.9231 28.891 12.1077 28.8577 12.1583C28.8244 12.2089 28.7176 12.369 28.6205 12.5141C28.3916 12.8558 28.3691 12.9571 28.5099 13.0107C28.5964 13.0435 29.9705 13.0402 30.066 13.0067C30.1483 12.9781 30.2277 12.8651 30.9024 11.8157C30.9775 11.6991 31.0996 11.5112 31.1741 11.3982L31.3092 11.1927L31.4615 11.4206C31.6186 11.6556 31.8085 11.9449 31.8504 12.0131C31.9142 12.1174 32.3205 12.7417 32.4157 12.882C32.5142 13.0271 32.555 13.0335 33.3706 13.0332C34.463 13.0326 34.4439 13.0829 33.741 12.0514C33.6344 11.8949 33.5089 11.7095 33.4624 11.6394C33.4157 11.5692 33.2902 11.3834 33.1836 11.2262C33.0771 11.0691 32.9789 10.9242 32.9655 10.904C32.9522 10.8839 32.8268 10.6995 32.6868 10.4943C32.5469 10.289 32.417 10.0926 32.3984 10.0578C32.3579 9.98205 32.3579 9.9819 32.6626 9.54116C32.7759 9.37728 32.9013 9.19247 32.9412 9.13023C32.9812 9.06814 33.0807 8.92026 33.1623 8.80175C33.2437 8.68324 33.4349 8.401 33.5872 8.1743C33.7393 7.94775 33.8999 7.7132 33.9443 7.65329C33.9885 7.59324 34.0312 7.52781 34.039 7.50788C34.0468 7.48782 34.0839 7.42893 34.1213 7.37701C34.1941 7.27595 34.2132 7.12938 34.1604 7.07645C34.1112 7.02745 32.6046 7.03588 32.5209 7.08576C32.461 7.12138 32.3839 7.23059 32.0001 7.82343C31.7582 8.19713 31.6846 8.31288 31.6205 8.42005C31.3806 8.82109 31.3491 8.85177 31.2919 8.74111C31.2705 8.69967 31.2074 8.59745 31.152 8.51398C31.0964 8.43051 30.9855 8.25631 30.9055 8.1269C30.8255 7.99748 30.6997 7.79711 30.6259 7.6815C30.5521 7.56605 30.4632 7.42238 30.4283 7.36247C30.2404 7.03937 30.2695 7.0478 29.34 7.04751C28.6054 7.04737 28.5474 7.05057 28.51 7.09172ZM35.3981 7.0875C35.3703 7.12095 35.3648 7.60807 35.3648 10.0462C35.3648 13.4181 35.3273 13.0335 35.6556 13.0335C35.9728 13.0335 35.9444 13.136 35.9585 11.9388L35.9707 10.913L36.7099 10.8984C37.5291 10.8823 37.684 10.8619 38.0881 10.7174C38.9698 10.4021 39.3559 9.80886 39.3204 8.824C39.2828 7.78576 38.7873 7.27174 37.643 7.08343C37.303 7.02759 35.4451 7.03094 35.3981 7.0875ZM40.1318 7.07645C40.1096 7.09884 40.1027 7.78824 40.1027 10.0318V12.958L40.1567 12.9958C40.2041 13.029 40.4053 13.0335 41.8504 13.0335C43.7903 13.0335 43.6048 13.0665 43.6048 12.7214C43.6048 12.3839 43.7633 12.4175 42.1074 12.4034L40.6966 12.3912L40.6844 9.75942C40.6743 7.57754 40.6666 7.12066 40.639 7.0875C40.5977 7.03763 40.1798 7.02861 40.1318 7.07645ZM49.0132 7.06351C48.9723 7.10452 49.0011 7.2524 49.0698 7.35419C49.1097 7.41337 49.1425 7.46746 49.1425 7.47444C49.1425 7.48127 49.253 7.66885 49.3881 7.89119C49.5231 8.11367 49.6774 8.37191 49.7308 8.46512C49.7843 8.55848 49.859 8.68048 49.8971 8.73617C49.9352 8.79186 49.9665 8.84334 49.9665 8.85061C49.9665 8.8618 50.0689 9.03455 50.4347 9.64062C50.6719 10.0334 50.7548 10.173 50.802 10.2586C50.8314 10.3118 50.9038 10.4318 50.963 10.5252C51.1394 10.8039 51.1298 10.7242 51.1298 11.8942V12.958L51.1836 12.9958C51.2208 13.0219 51.2941 13.0335 51.4206 13.0335C51.5471 13.0335 51.6203 13.0219 51.6575 12.9958L51.7114 12.958V11.8664V10.7748L51.8006 10.6258C51.8497 10.5438 51.9533 10.3757 52.0308 10.2524C52.1084 10.1289 52.1718 10.022 52.1718 10.0148C52.1718 10.0075 52.2189 9.92854 52.2764 9.83925C52.3339 9.74997 52.4347 9.58638 52.5006 9.47558C52.5663 9.36492 52.6583 9.21122 52.705 9.1343C52.7517 9.05724 52.8379 8.91328 52.8965 8.81454C52.9553 8.71567 53.0492 8.56386 53.1055 8.47734C53.1616 8.39067 53.2269 8.28161 53.2506 8.23494C53.2743 8.18826 53.3365 8.08676 53.3889 8.00955C53.4412 7.93219 53.5001 7.83404 53.5198 7.79144C53.5392 7.74868 53.6147 7.62189 53.6873 7.50948C53.9275 7.13752 53.9074 7.06264 53.5651 7.0526C53.2838 7.04431 53.2542 7.06264 53.0866 7.3504C52.8513 7.75377 52.4969 8.35301 52.3006 8.67917C52.2298 8.79695 52.1718 8.89903 52.1718 8.9063C52.1718 8.91342 52.1136 9.01347 52.0424 9.12849C51.9713 9.24351 51.8526 9.44126 51.7788 9.56792C51.4032 10.2115 51.4382 10.1608 51.4027 10.1106C51.3593 10.0492 51.0571 9.53753 51.0571 9.52531C51.0571 9.51993 50.9934 9.41015 50.9155 9.28117C50.8377 9.15233 50.7104 8.93771 50.6326 8.80451C50.555 8.67117 50.4414 8.48068 50.3803 8.38108C50.3193 8.28147 50.247 8.15598 50.2198 8.10232C50.1925 8.04867 50.1205 7.92289 50.0597 7.82299C49.9991 7.72295 49.8816 7.52664 49.7987 7.38676C49.5935 7.04053 49.604 7.04737 49.2892 7.04737C49.1462 7.04737 49.0221 7.05464 49.0132 7.06351ZM54.6447 7.09434C54.5929 7.19103 54.6117 12.9461 54.6639 12.9934C54.7296 13.0528 57.8739 13.055 57.9587 12.9958C58.0082 12.9611 58.0125 12.9385 58.0125 12.7184C58.0125 12.3711 58.1618 12.4034 56.5527 12.4034H55.2007L55.2071 11.3674L55.2134 10.3313L56.4332 10.3191C57.8572 10.305 57.7217 10.3384 57.7217 10.0012C57.7217 9.68483 57.8473 9.71333 56.4537 9.71289C55.7982 9.71275 55.2481 9.70388 55.2312 9.69312C55.2072 9.67799 55.202 9.45682 55.207 8.66957L55.2134 7.66536L56.5705 7.65955C58.1658 7.65271 58.0125 7.68688 58.0125 7.33732C58.0125 7.01538 58.2014 7.04737 56.3031 7.04737C54.7131 7.04737 54.6691 7.04868 54.6447 7.09434ZM58.9788 7.0875C58.951 7.12095 58.9456 7.60807 58.9456 10.0462C58.9456 13.4181 58.9081 13.0335 59.2364 13.0335C59.5553 13.0335 59.5252 13.1556 59.5393 11.8055L59.5514 10.6463L60.2821 10.6399C60.7134 10.6361 61.0381 10.6432 61.0746 10.657C61.1313 10.6786 61.3447 10.9723 61.5267 11.279C61.56 11.3351 61.6037 11.4011 61.6239 11.4257C61.6785 11.492 61.7689 11.6242 61.7689 11.6375C61.7689 11.6489 62.0064 12.0124 62.1583 12.2337C62.1995 12.2936 62.3005 12.4456 62.3828 12.5714C62.6236 12.9394 62.6379 12.9577 62.7129 12.9966C62.7608 13.0213 62.8534 13.0335 62.9933 13.0335C63.4411 13.0335 63.4305 12.9856 62.7619 12.0035C62.4249 11.5081 61.7448 10.4773 61.7448 10.4616C61.7448 10.4507 61.8024 10.425 61.8729 10.4045C62.354 10.2646 62.7759 9.79636 62.8691 9.29905C63.1078 8.02511 62.5274 7.26199 61.1752 7.07223C60.8581 7.02774 59.0179 7.04053 58.9788 7.0875ZM37.3693 7.6786C38.0149 7.74389 38.369 7.93845 38.5803 8.344C38.8598 8.88085 38.7133 9.59845 38.2556 9.93392C37.8776 10.2108 37.5892 10.2707 36.635 10.2707H35.9585V8.97813C35.9585 8.26722 35.9658 7.67831 35.9747 7.66944C36.0005 7.6437 37.0952 7.65082 37.3693 7.6786ZM61.0298 7.68805C61.9562 7.78838 62.4552 8.35708 62.2777 9.11031C62.1108 9.8189 61.6511 10.0283 60.2632 10.0283H59.5393V8.857C59.5393 8.21269 59.5466 7.67831 59.5555 7.66944C59.5857 7.63919 60.7105 7.65344 61.0298 7.68805ZM47.3749 8.74387C47.6119 9.26401 47.8035 9.67945 47.9452 9.97987C48.0174 10.1331 48.0765 10.2721 48.0763 10.2889C48.0762 10.3126 47.8563 10.3191 47.0583 10.3191C46.4985 10.3191 46.0404 10.315 46.0404 10.3101C46.0404 10.2945 46.1387 10.0751 46.2738 9.78952C46.3453 9.6383 46.4039 9.50932 46.4039 9.50306C46.4039 9.49667 46.4639 9.36638 46.5371 9.21326C46.6104 9.06014 46.6705 8.9284 46.6705 8.92026C46.6705 8.91226 46.7304 8.78139 46.8038 8.62944C46.8771 8.47763 46.937 8.34225 46.937 8.32873C46.937 8.3152 46.9664 8.25428 47.002 8.1932L47.0672 8.08226L47.1464 8.24948C47.19 8.34152 47.2928 8.56386 47.3749 8.74387Z" fill="white"/>
<path id="path2" fill-rule="evenodd" clip-rule="evenodd" d="M10.8246 7.05636L10.7666 7.0853V10.1494V13.2135L10.8301 13.2491C10.8922 13.284 10.9511 13.252 13.496 11.7985C16.4367 10.1189 16.2317 10.2423 16.2317 10.151C16.2317 10.0607 16.4919 10.2173 13.5649 8.54537C10.653 6.88202 10.9026 7.01754 10.8246 7.05636Z" fill="#FBFBFB"/>
<path id="path3" fill-rule="evenodd" clip-rule="evenodd" d="M10.836 7.02465C10.8073 7.03527 10.7752 7.05839 10.7646 7.07598C10.7497 7.10056 10.7534 7.10186 10.7803 7.08151C10.8716 7.01215 10.888 7.01607 11.1607 7.1721C11.2306 7.21209 11.2879 7.23957 11.2879 7.23302C11.2879 7.22037 10.9847 7.04181 10.9244 7.01898C10.9043 7.01142 10.8646 7.01404 10.836 7.02465ZM10.7422 10.1495C10.7422 11.809 10.7451 12.4879 10.7486 11.6582C10.7522 10.8283 10.7522 9.4706 10.7486 8.64089C10.7451 7.81103 10.7422 8.48995 10.7422 10.1495ZM11.3243 7.25789C11.3375 7.27141 11.4138 7.31838 11.4938 7.36244C11.5738 7.4065 11.6283 7.43107 11.6151 7.41726C11.6017 7.4033 11.5254 7.35633 11.4454 7.31271C11.3654 7.26909 11.3109 7.24437 11.3243 7.25789ZM11.6514 7.44416C11.6514 7.44998 11.7141 7.48997 11.7907 7.53286C11.8674 7.57576 11.9764 7.63785 12.0331 7.67071C12.0897 7.70372 12.1361 7.72509 12.1361 7.71826C12.1361 7.71157 12.0516 7.65748 11.9482 7.5983C11.7066 7.45972 11.6514 7.43107 11.6514 7.44416ZM12.1604 7.73498C12.1604 7.7408 12.223 7.78079 12.2997 7.82368C12.3763 7.86658 12.4854 7.92867 12.5421 7.96153C12.5986 7.99454 12.645 8.01592 12.645 8.00908C12.645 8.00239 12.5605 7.9483 12.4572 7.88912C12.2155 7.75054 12.1604 7.7219 12.1604 7.73498ZM12.6814 8.03395C12.7144 8.06768 13.0512 8.24915 13.0206 8.21673C13.0074 8.20248 12.9201 8.14998 12.8268 8.09996C12.7334 8.04994 12.668 8.02028 12.6814 8.03395ZM13.057 8.24348C13.057 8.25264 13.1947 8.33509 13.475 8.49403C13.4851 8.4997 13.4932 8.49926 13.4932 8.49286C13.4932 8.4837 13.3557 8.40125 13.0752 8.24232C13.0653 8.23665 13.057 8.23723 13.057 8.24348ZM13.5175 8.51046C13.5175 8.51627 13.5802 8.55626 13.6568 8.59916C13.7334 8.6422 13.8425 8.70414 13.8992 8.73715C13.9559 8.77002 14.0021 8.79139 14.0021 8.78456C14.0021 8.77787 13.9177 8.72392 13.8144 8.66459C13.5726 8.52602 13.5175 8.49737 13.5175 8.51046ZM14.0264 8.80142C14.0264 8.80724 14.0891 8.84708 14.1657 8.88998C14.2424 8.93302 14.3514 8.99497 14.4081 9.02797C14.4648 9.06084 14.5111 9.0825 14.5111 9.0761C14.5111 9.06374 14.2373 8.89856 14.1052 8.83123C14.0619 8.80913 14.0264 8.79575 14.0264 8.80142ZM14.5474 9.10039C14.5608 9.11391 14.6481 9.1664 14.7414 9.21701C14.8346 9.26747 14.9001 9.29771 14.8868 9.28404C14.8734 9.27037 14.7862 9.21788 14.6928 9.16742C14.5996 9.11696 14.5342 9.08672 14.5474 9.10039ZM14.9352 9.31909C14.9486 9.33275 15.2485 9.50914 15.6015 9.71111C15.9547 9.91294 16.2274 10.0624 16.2074 10.0432C16.1875 10.0242 15.8986 9.85332 15.5653 9.66371C14.8646 9.26514 14.9035 9.28637 14.9352 9.31909ZM16.1141 10.2954C15.9709 10.3895 15.9576 10.4078 16.0759 10.3482C16.1301 10.3208 16.1887 10.2813 16.2061 10.2603C16.2479 10.2099 16.2387 10.2134 16.1141 10.2954ZM15.4805 10.6614C15.2205 10.8091 14.997 10.9414 14.9837 10.9557C14.9574 10.9837 14.9893 10.9663 15.5714 10.6352C15.9066 10.4446 15.9944 10.3896 15.9592 10.3924C15.9559 10.3925 15.7404 10.5136 15.4805 10.6614ZM14.7837 11.0601C14.7004 11.1073 14.6324 11.1518 14.6324 11.159C14.6324 11.1734 14.8974 11.0294 14.9341 10.9951C14.9751 10.9566 14.9382 10.9726 14.7837 11.0601ZM14.3779 11.292C14.1749 11.4066 14.0349 11.5027 14.1718 11.4334C14.3721 11.332 14.6463 11.1629 14.602 11.1681C14.5986 11.1684 14.4979 11.2243 14.3779 11.292ZM13.869 11.5823C13.749 11.6503 13.6399 11.7173 13.6266 11.7312C13.604 11.7544 13.7512 11.6772 13.9962 11.5367C14.0833 11.4869 14.1193 11.4578 14.093 11.4584C14.0897 11.4584 13.9889 11.5142 13.869 11.5823ZM13.4266 11.8356C13.3433 11.8828 13.2751 11.9273 13.2751 11.9344C13.2751 11.9488 13.5403 11.8049 13.5768 11.7706C13.618 11.7322 13.581 11.7482 13.4266 11.8356ZM12.9177 12.1264C12.8344 12.1736 12.7662 12.2181 12.7662 12.2253C12.7662 12.2397 13.0314 12.0957 13.0679 12.0614C13.109 12.023 13.0721 12.039 12.9177 12.1264ZM12.4087 12.4172C12.3254 12.4645 12.2572 12.5087 12.2572 12.5156C12.2572 12.529 12.5207 12.3855 12.5589 12.3512C12.6017 12.3131 12.561 12.331 12.4087 12.4172ZM12.0584 12.6169C11.9692 12.667 11.8873 12.7176 11.8767 12.7294C11.8541 12.7544 12.1854 12.5767 12.2197 12.5455C12.2616 12.5074 12.2228 12.5245 12.0584 12.6169ZM11.6453 12.8534C11.5547 12.9026 11.5603 12.9231 11.6514 12.876C11.6914 12.8552 11.7241 12.8332 11.7241 12.8268C11.7241 12.8113 11.7215 12.8121 11.6453 12.8534ZM11.4515 12.9623C11.4015 12.9888 11.3606 13.0159 11.3606 13.0224C11.3606 13.0291 11.4042 13.0122 11.4575 12.985C11.5108 12.9578 11.5545 12.9304 11.5545 12.924C11.5545 12.9081 11.5543 12.9081 11.4515 12.9623ZM11.0576 13.1905C10.9776 13.2366 10.9218 13.2747 10.9335 13.2751C10.9587 13.276 11.2152 13.1316 11.2152 13.1165C11.2152 13.1002 11.2111 13.1021 11.0576 13.1905Z" fill="#599DF4"/>
</g>
</g>
</g>
</svg>
