<svg width="69" height="19" viewBox="0 0 69 19" fill="none" xmlns="http://www.w3.org/2000/svg">
<g id="STRAMING SHORTLY APP LOGOS">
<mask id="mask0_338_7111" style="mask-type:alpha" maskUnits="userSpaceOnUse" x="0" y="0" width="69" height="19">
<rect id="Rectangle 17" y="0.978027" width="69" height="18" fill="#D9D9D9"/>
</mask>
<g mask="url(#mask0_338_7111)">
<path id="Vector" d="M45.3693 3.97803V12.7191C46.4452 12.7692 47.5184 12.8299 48.5885 12.9014V14.7546C46.8968 14.6416 45.1981 14.5554 43.4922 14.4965V3.97803H45.3693ZM60.2853 3.97906L57.8411 9.65744L60.2847 15.9764L60.282 15.9776C59.5701 15.8758 58.8574 15.7798 58.1426 15.6877L56.7703 12.1411L55.385 15.3585C54.7285 15.2858 54.0711 15.2171 53.4122 15.1527L55.795 9.61947L53.6128 3.97906H55.6434L56.8652 7.1355L58.2237 3.97906H60.2853ZM37.0501 14.4047L37.05 3.97903H42.2898V5.84889H38.9271V8.27232H41.4714V10.1255H38.9271V14.4043L37.0501 14.4047ZM30.0412 5.84905L30.0411 3.97893H35.8468V5.84892H33.8824V14.4554C33.2559 14.4718 32.63 14.4913 32.0055 14.5149V5.84905H30.0412ZM23.6243 15.0537V3.97925H28.8379V5.84911H25.501V8.38199C26.2676 8.37216 27.3576 8.36101 28.0358 8.36265V10.216C27.1869 10.2054 26.2287 10.2277 25.501 10.235V13.0407C26.6101 12.9533 27.7225 12.8768 28.8379 12.8122V14.6656C27.0921 14.7664 25.3542 14.8962 23.6243 15.0537ZM19.9422 10.7695L19.942 3.97894H21.8191V15.2284C21.1329 15.2991 20.448 15.3744 19.7644 15.4538L17.5908 9.19671V15.7219C16.9639 15.8037 16.3383 15.889 15.7139 15.978V3.97906H17.4977L19.9422 10.7695ZM50.1371 14.8664V3.97908H52.0141V15.0217C51.3892 14.966 50.7638 14.9144 50.1371 14.8664Z" fill="#E50914"/>
</g>
</g>
</svg>
