<svg width="174" height="46" viewBox="0 0 174 46" fill="none" xmlns="http://www.w3.org/2000/svg">
<g id="NETFLIX LOGO">
<mask id="mask0_1425_30967" style="mask-type:alpha" maskUnits="userSpaceOnUse" x="0" y="0" width="174" height="46">
<rect id="Rectangle 17" width="173.778" height="46" fill="#3E3E3E"/>
</mask>
<g mask="url(#mask0_1425_30967)">
<path id="Vector" d="M106.452 10.2223V32.5605C109.202 32.6887 111.944 32.8436 114.679 33.0265V37.7624C110.356 37.4737 106.015 37.2532 101.655 37.1029V10.2223H106.452ZM144.571 10.2249L138.324 24.7363L144.569 40.8848L144.562 40.8879C142.743 40.6278 140.922 40.3823 139.095 40.147L135.588 31.0835L132.048 39.3056C130.37 39.12 128.69 38.9443 127.006 38.7797L133.096 24.6393L127.519 10.2249H132.708L135.83 18.2914L139.302 10.2249H144.571ZM85.192 36.8682L85.1918 10.2249H98.5823V15.0034H89.9888V21.1966H96.4909V25.9326H89.9888V36.8671L85.192 36.8682ZM67.2802 15.0038L67.28 10.2246H82.1168V15.0035H77.0968V36.9978C75.4956 37.0398 73.8962 37.0896 72.3001 37.1499V15.0038H67.2802ZM50.8815 38.5268V10.2254H64.2052V15.0039H55.6777V21.4769C57.6368 21.4517 60.4223 21.4232 62.1553 21.4274V26.1638C59.986 26.1368 57.5374 26.1936 55.6777 26.2122V33.3824C58.5119 33.159 61.3547 32.9635 64.2052 32.7985V37.535C59.7438 37.7925 55.3024 38.1242 50.8815 38.5268ZM41.4716 27.5782L41.4713 10.2246H46.2683V38.9732C44.5147 39.154 42.7645 39.3463 41.0173 39.5494L35.4627 23.5589V40.2343C33.8606 40.4434 32.2618 40.6614 30.666 40.889V10.2249H35.2247L41.4716 27.5782ZM118.636 38.0481V10.225H123.433V38.4451C121.836 38.3026 120.238 38.1709 118.636 38.0481Z" fill="#ECEDF0"/>
</g>
</g>
</svg>
