<svg width="16" height="16" viewBox="0 0 16 16" fill="none" xmlns="http://www.w3.org/2000/svg">
<path d="M12.6663 6.98951V6.66659C12.6663 4.80499 11.5763 3.19798 9.99967 2.44901C9.3935 2.16105 9.38207 1.33325 7.99967 1.33325C6.61728 1.33325 6.60584 2.16105 5.99967 2.44901C4.42304 3.19798 3.33301 4.80499 3.33301 6.66659V6.98973C3.33301 7.36833 3.33301 7.55762 3.30685 7.74301C3.28407 7.90444 3.24653 8.06344 3.19472 8.21801C3.13521 8.39552 3.05055 8.56483 2.88124 8.90345L2.88124 8.90345C2.36602 9.93389 2.10841 10.4491 2.17232 10.8678C2.22699 11.2259 2.42507 11.5464 2.72098 11.7555C3.06687 11.9999 3.6429 11.9999 4.79496 11.9999H11.2044C12.3564 11.9999 12.9325 11.9999 13.2784 11.7555C13.5743 11.5464 13.7724 11.2259 13.827 10.8678C13.8909 10.4491 13.6751 10.0175 13.2436 9.15435L13.2436 9.15435L13.2435 9.15433C12.9906 8.64846 12.8641 8.39552 12.8046 8.21801C12.7528 8.06344 12.7153 7.90444 12.6925 7.74301C12.6663 7.55762 12.6663 7.36825 12.6663 6.98951Z" fill="#C5C8D0"/>
<path d="M10.6663 11.3333C10.4142 12.8547 9.31612 13.9999 7.99967 13.9999C6.68323 13.9999 5.58513 12.8547 5.33301 11.3333" stroke="#C5C8D0" stroke-width="1.33333"/>
</svg>
