<svg width="174" height="46" viewBox="0 0 174 46" fill="none" xmlns="http://www.w3.org/2000/svg">
<g id="PRIME VIDEO">
<mask id="mask0_1425_31167" style="mask-type:alpha" maskUnits="userSpaceOnUse" x="0" y="0" width="174" height="46">
<rect id="Rectangle 17" width="173.778" height="46" fill="#3E3E3E"/>
</mask>
<g mask="url(#mask0_1425_31167)">
<g id="PRIME LOGO">
<mask id="mask1_1425_31167" style="mask-type:alpha" maskUnits="userSpaceOnUse" x="11" y="0" width="153" height="46">
<rect id="Rectangle 15" x="11.2441" width="151.8" height="46" fill="#D9D9D9"/>
</mask>
<g mask="url(#mask1_1425_31167)">
<g id="Group 27">
<path id="Vector" d="M90.2383 44.6727V44.6022C90.3087 44.5142 90.4319 44.4614 90.5375 44.479C91.048 44.4614 91.5409 44.4614 92.0513 44.479C92.1569 44.479 92.2802 44.5142 92.3506 44.6022V44.6727H90.2383Z" fill="#ECEDF0"/>
<path id="Vector_2" d="M92.3494 44.6019C91.6453 44.5843 90.9412 44.5843 90.2371 44.6019C89.269 44.5491 88.3008 44.5139 87.3327 44.4435C84.7628 44.2499 82.2104 43.8626 79.7108 43.2818C71.068 41.2751 63.4814 37.2441 56.8629 31.3825C56.2468 30.8368 55.6659 30.2735 55.0674 29.7103C54.9266 29.587 54.8034 29.411 54.733 29.235C54.6273 28.9886 54.6801 28.7245 54.8562 28.5309C55.0322 28.3373 55.3138 28.2669 55.5603 28.3725C55.7187 28.4429 55.8771 28.5133 56.0179 28.6013C62.3372 32.5091 69.2374 35.3607 76.472 37.0505C78.9011 37.6138 81.3479 38.0538 83.8122 38.3707C87.3503 38.8107 90.9236 38.9692 94.4793 38.8459C96.398 38.7931 98.299 38.6171 100.2 38.3707C104.636 37.8074 109.019 36.8041 113.261 35.3959C115.497 34.6566 117.679 33.8116 119.809 32.8259C120.126 32.6499 120.513 32.5971 120.865 32.6851C121.446 32.8259 121.798 33.4244 121.658 34.0053C121.64 34.0757 121.605 34.1637 121.569 34.2341C121.429 34.4981 121.235 34.727 120.989 34.903C118.964 36.4872 116.782 37.8778 114.476 39.0396C110.128 41.2399 105.481 42.8065 100.693 43.7042C97.9294 44.1971 95.1482 44.4963 92.3494 44.6019ZM66.2802 8.92176C66.7202 8.65772 67.1779 8.37608 67.6532 8.12965C68.8853 7.49596 70.2583 7.17911 71.6489 7.24952C72.6523 7.30233 73.5676 7.58397 74.2717 8.32327C74.9406 9.00977 75.187 9.85469 75.2574 10.77C75.275 10.9636 75.275 11.1573 75.275 11.3685V20.4866C75.275 21.2787 75.1694 21.3843 74.3773 21.3843H72.2298C72.089 21.3843 71.9482 21.3843 71.8073 21.3667C71.5961 21.3491 71.4201 21.1731 71.3849 20.9618C71.3497 20.7682 71.3497 20.5746 71.3497 20.381V12.231C71.3673 11.8966 71.3321 11.5797 71.2441 11.2629C71.1032 10.7172 70.6104 10.33 70.0471 10.2947C69.0085 10.2243 67.97 10.4356 67.0195 10.8756C66.8787 10.9108 66.7906 11.0517 66.8082 11.1925V20.4514C66.8082 20.6274 66.8082 20.7858 66.773 20.9618C66.773 21.2083 66.5794 21.3843 66.333 21.3843C66.0689 21.4019 65.8049 21.4019 65.5233 21.4019H63.6574C63.0061 21.4019 62.8653 21.2435 62.8653 20.5922V12.2662C62.8653 11.967 62.8477 11.6501 62.7773 11.3509C62.6541 10.7524 62.1436 10.33 61.5451 10.2947C60.489 10.2243 59.4152 10.4356 58.4647 10.8932C58.3239 10.9284 58.2358 11.0869 58.271 11.2277V20.6098C58.271 21.2611 58.1302 21.4019 57.4789 21.4019H55.1202C54.5041 21.4019 54.3457 21.2259 54.3457 20.6274V8.41129C54.3457 8.27047 54.3633 8.12965 54.3985 7.98883C54.4689 7.7776 54.6801 7.65438 54.8914 7.65438H57.0917C57.4085 7.65438 57.6022 7.84801 57.7078 8.14725C57.7958 8.39368 57.8486 8.62251 57.9366 8.88655C58.1126 8.88655 58.2182 8.76333 58.3415 8.69292C59.3096 8.09444 60.3305 7.58397 61.4747 7.37274C62.3548 7.19672 63.2349 7.19672 64.1151 7.37274C64.9424 7.54877 65.6817 8.04163 66.157 8.74573C66.1922 8.79854 66.2274 8.83374 66.2626 8.86895C66.245 8.88655 66.2626 8.88655 66.2802 8.92176Z" fill="#ECEDF0"/>
<path id="Vector_3" d="M102.771 17.6887C102.877 17.3367 102.983 17.0022 103.088 16.6502C103.898 13.9218 104.708 11.211 105.517 8.48262L105.623 8.16578C105.711 7.84894 106.01 7.65531 106.327 7.65531H109.003C109.671 7.65531 109.812 7.84894 109.583 8.48262L108.527 11.2814C107.348 14.3442 106.169 17.4247 104.989 20.4875C104.954 20.5931 104.901 20.6987 104.866 20.8043C104.743 21.174 104.373 21.4204 103.986 21.3852C103.211 21.3676 102.437 21.3676 101.662 21.3852C101.117 21.4028 100.8 21.1564 100.606 20.6635C100.166 19.5018 99.7084 18.3224 99.2684 17.1606C98.2122 14.397 97.1385 11.6335 96.0823 8.85228C95.9767 8.64105 95.9063 8.39461 95.8535 8.16578C95.8007 7.81373 95.9239 7.63771 96.276 7.63771C97.2793 7.6201 98.2826 7.63771 99.2684 7.63771C99.6908 7.63771 99.8845 7.91934 99.9901 8.289C100.184 8.95789 100.377 9.64439 100.589 10.3133C101.31 12.76 102.014 15.2244 102.736 17.6711C102.718 17.6887 102.736 17.6887 102.771 17.6887Z" fill="#ECEDF0"/>
<path id="Vector_4" d="M40.2649 9.59111C40.3881 9.55591 40.4937 9.4855 40.5641 9.37988C40.881 9.06304 41.2154 8.7638 41.5675 8.48216C42.4828 7.77806 43.627 7.42601 44.7711 7.51402C45.2288 7.53163 45.3872 7.67245 45.4224 8.11251C45.4576 8.71099 45.44 9.32708 45.44 9.92556C45.4576 10.172 45.44 10.4008 45.4048 10.6473C45.3344 10.9641 45.2112 11.0873 44.8943 11.1225C44.6479 11.1401 44.4191 11.1225 44.1726 11.1049C42.9933 10.9993 41.8491 11.2281 40.7402 11.5978C40.4937 11.6858 40.4937 11.8618 40.4937 12.0555V20.5046C40.4937 20.6631 40.4937 20.8039 40.4761 20.9623C40.4585 21.1911 40.2825 21.3672 40.0537 21.3672C39.9305 21.3848 39.7896 21.3848 39.6664 21.3848H37.3781C37.2549 21.3848 37.1141 21.3848 36.9908 21.3672C36.762 21.3496 36.586 21.1559 36.5684 20.9271C36.5508 20.7863 36.5508 20.6455 36.5508 20.5046V8.53497C36.5508 7.72525 36.6388 7.63724 37.4485 7.63724H39.1383C39.596 7.63724 39.8072 7.79566 39.9305 8.23572C40.0537 8.67579 40.1593 9.11585 40.2649 9.59111ZM122.609 27.44C123.771 27.4752 124.915 27.5456 126.042 27.8449C126.359 27.9329 126.658 28.0385 126.957 28.1793C127.362 28.3377 127.626 28.725 127.679 29.1474C127.749 29.6403 127.767 30.1508 127.731 30.6613C127.503 33.6713 126.57 36.5757 125.021 39.1632C124.457 40.0962 123.771 40.9411 122.979 41.6804C122.82 41.8388 122.627 41.962 122.416 42.0324C122.081 42.1205 121.87 41.9444 121.852 41.61C121.87 41.434 121.905 41.2579 121.975 41.0819C122.592 39.4273 123.19 37.7902 123.665 36.0828C123.947 35.1499 124.141 34.1993 124.264 33.2312C124.299 32.8792 124.317 32.5271 124.281 32.1751C124.264 31.5766 123.877 31.0661 123.296 30.8901C122.75 30.7141 122.187 30.6084 121.606 30.5732C119.986 30.5028 118.367 30.5732 116.765 30.7845L114.635 31.0485C114.406 31.0661 114.195 31.0485 114.072 30.8373C113.949 30.626 114.002 30.4148 114.125 30.2036C114.266 30.01 114.442 29.8339 114.653 29.7107C115.955 28.7778 117.416 28.2145 118.965 27.8449C120.162 27.5984 121.377 27.4752 122.609 27.44Z" fill="#ECEDF0"/>
<path id="Vector_5" d="M115.234 14.5197V20.8566C115.199 21.2087 115.04 21.3671 114.688 21.3847C113.738 21.4023 112.805 21.4023 111.854 21.3847C111.502 21.3847 111.344 21.2087 111.309 20.8742C111.291 20.7686 111.291 20.6454 111.291 20.5398V8.35888C111.309 7.81321 111.449 7.65479 111.995 7.65479H114.53C115.076 7.65479 115.234 7.81321 115.234 8.35888V14.5197Z" fill="#ECEDF0"/>
<path id="Vector_6" d="M47.1301 14.4844V8.23557C47.1477 7.81311 47.3061 7.65469 47.7285 7.63708C48.6439 7.61948 49.5592 7.61948 50.4745 7.63708C50.8794 7.63708 51.0026 7.7603 51.0378 8.16516C51.0554 8.32358 51.0554 8.4644 51.0554 8.62282V20.3461C51.0554 20.5397 51.0378 20.7333 51.0202 20.9269C51.0026 21.1558 50.8266 21.3142 50.5977 21.3318C50.4921 21.3494 50.4041 21.3494 50.2985 21.3494H47.8518C47.7637 21.3494 47.6933 21.3494 47.6053 21.3318C47.3589 21.3142 47.1477 21.1206 47.1301 20.8741C47.1125 20.7333 47.1125 20.5925 47.1125 20.4517C47.1301 18.4978 47.1301 16.4911 47.1301 14.4844ZM49.1719 1.3354C49.4536 1.3178 49.7352 1.37061 49.9993 1.45862C50.9498 1.77547 51.4427 2.60278 51.3546 3.67653C51.2842 4.59186 50.5977 5.33116 49.6824 5.47198C49.2952 5.54239 48.8903 5.54239 48.503 5.47198C47.4997 5.27835 46.7604 4.53905 46.8308 3.27167C46.9364 2.0219 47.7637 1.3354 49.1719 1.3354Z" fill="#ECEDF0"/>
<path id="Vector_7" d="M113.279 1.33539C113.631 1.30018 113.983 1.37059 114.318 1.51141C115.004 1.77545 115.48 2.40914 115.515 3.14844C115.656 4.75026 114.582 5.55998 113.156 5.52477C112.963 5.52477 112.769 5.48957 112.575 5.45436C111.484 5.19033 110.921 4.34541 111.026 3.13084C111.114 2.1627 111.871 1.441 112.91 1.35299C113.033 1.33539 113.156 1.31778 113.279 1.33539Z" fill="#ECEDF0"/>
<path id="Vector_8" d="M33.9464 13.0414C33.876 12.1261 33.6296 11.2284 33.2599 10.401C32.5382 8.88723 31.4292 7.77828 29.7394 7.39103C27.8031 6.96857 26.0605 7.39103 24.4763 8.57039C24.3707 8.67601 24.2474 8.76402 24.1066 8.83443C24.0714 8.81683 24.0362 8.79922 24.0362 8.78162C23.9834 8.6056 23.9482 8.42957 23.8954 8.25355C23.7546 7.81349 23.5786 7.65506 23.1033 7.65506C22.5752 7.65506 22.0295 7.67267 21.5015 7.65506C21.0966 7.63746 20.727 7.69027 20.4453 8.00711C20.4453 14.168 20.4453 20.3464 20.4629 26.4897C20.6917 26.8593 21.0438 26.9298 21.4487 26.9122C22.0823 26.8946 22.716 26.9122 23.3497 26.9122C24.4587 26.9122 24.4587 26.9122 24.4587 25.8208V20.8041C24.4587 20.6809 24.4059 20.5401 24.5291 20.4344C25.4092 21.1209 26.483 21.5434 27.5919 21.649C29.1409 21.8074 30.5491 21.4202 31.7285 20.364C32.591 19.5719 33.2247 18.551 33.5591 17.4244C34.0344 15.981 34.0696 14.52 33.9464 13.0414ZM29.7394 16.6851C29.6162 17.2308 29.3346 17.7237 28.9297 18.0933C28.472 18.4806 27.9088 18.7094 27.3103 18.7094C26.4125 18.7622 25.5324 18.5686 24.7403 18.1461C24.5467 18.0581 24.4235 17.8645 24.4411 17.6533V14.4672C24.4411 13.4111 24.4587 12.3549 24.4411 11.2988C24.4235 11.0523 24.5643 10.8411 24.7931 10.7531C25.7613 10.2954 26.7646 10.0842 27.8207 10.2954C28.56 10.401 29.1937 10.8763 29.493 11.5628C29.757 12.1261 29.9154 12.7422 29.9506 13.3583C30.0563 14.4848 30.0563 15.6114 29.7394 16.6851Z" fill="#ECEDF0"/>
<path id="Vector_9" d="M161.283 15.7871C161.283 15.7695 161.283 15.7695 161.283 15.7871V15.7871ZM161.3 13.4284V13.4988C161.23 13.4284 161.195 13.3228 161.23 13.2348V13.094C161.23 13.094 161.23 13.0764 161.247 13.0764H161.23V12.9003H161.265C161.265 12.8827 161.247 12.8827 161.247 12.8651C161.212 12.5307 161.142 12.1962 161.054 11.8794C160.402 9.55587 158.941 8.02446 156.565 7.42597C155.456 7.16194 154.33 7.12673 153.203 7.30276C150.827 7.6548 149.119 8.92218 148.292 11.1753C147.482 13.3228 147.5 15.6815 148.31 17.829C149.014 19.7829 150.422 21.0151 152.446 21.5255C153.52 21.7896 154.646 21.86 155.755 21.7016C159.452 21.2615 160.983 18.4627 161.23 16.0336H161.212V15.7871C161.195 15.6815 161.177 15.5935 161.283 15.5231V15.5583C161.283 15.5407 161.3 15.5055 161.318 15.4879V13.4636C161.318 13.446 161.3 13.446 161.3 13.4284ZM157.076 16.7729C156.97 17.1425 156.812 17.477 156.583 17.7938C156.195 18.3395 155.579 18.6915 154.91 18.7444C154.576 18.7796 154.242 18.7796 153.907 18.7091C153.168 18.5683 152.552 18.0755 152.252 17.389C151.988 16.8433 151.83 16.2448 151.777 15.6463C151.689 14.6078 151.672 13.5692 151.918 12.5483C152.006 12.1434 152.182 11.7386 152.393 11.3865C152.781 10.7528 153.449 10.348 154.189 10.2952C154.523 10.26 154.858 10.26 155.192 10.3304C155.896 10.4712 156.477 10.9289 156.794 11.5802C157.093 12.1962 157.269 12.8827 157.304 13.5692C157.322 13.8861 157.34 14.2029 157.322 14.5198C157.375 15.2943 157.287 16.0512 157.076 16.7729ZM130.443 1.45874H127.996C127.327 1.45874 127.204 1.58196 127.204 2.25085V7.95405C127.204 8.07726 127.257 8.20048 127.169 8.3237C127.011 8.3061 126.923 8.20048 126.799 8.13007C124.969 7.05632 123.05 6.86269 121.114 7.76042C119.758 8.39411 118.913 9.53827 118.368 10.8937C117.84 12.1962 117.716 13.5692 117.752 14.9598C117.752 16.2624 118.051 17.5474 118.632 18.7091C119.301 19.9941 120.269 20.9799 121.677 21.4023C123.596 22.0008 125.391 21.7016 127.028 20.487C127.151 20.4166 127.222 20.2934 127.38 20.2582C127.468 20.4518 127.539 20.663 127.574 20.8742C127.644 21.1559 127.891 21.3495 128.19 21.3495H128.612C129.246 21.3495 129.862 21.3671 130.478 21.3495C130.971 21.3495 131.112 21.1911 131.13 20.6806V2.12763C131.112 1.58196 130.971 1.45874 130.443 1.45874ZM127.222 14.4141V17.6178C127.257 17.829 127.134 18.0226 126.94 18.1107C126.095 18.5859 125.127 18.7796 124.177 18.6387C123.367 18.5507 122.663 18.0579 122.293 17.3362C122.011 16.7729 121.853 16.1744 121.8 15.5583C121.659 14.4494 121.747 13.3228 122.011 12.249C122.099 11.9498 122.205 11.6682 122.364 11.3865C122.733 10.7 123.437 10.26 124.212 10.2072C125.145 10.1191 126.078 10.2952 126.923 10.6824C127.134 10.7528 127.257 10.9641 127.239 11.1929C127.204 12.2843 127.222 13.3404 127.222 14.4141Z" fill="#ECEDF0"/>
<path id="Vector_10" d="M81.7002 15.6279C83.0204 15.8743 84.3758 15.8919 85.696 15.6807C86.4705 15.575 87.2098 15.3462 87.8963 14.9766C88.6884 14.5189 89.2693 13.8852 89.5157 13.0051C90.1318 10.7872 89.1812 8.55167 86.8753 7.72435C85.7488 7.3547 84.5518 7.23148 83.3724 7.3899C80.5912 7.70675 78.7782 9.23816 77.9509 11.8961C77.37 13.7092 77.4404 15.5574 77.9157 17.3881C78.5318 19.7292 80.0808 21.1198 82.4219 21.6127C83.7597 21.9119 85.1151 21.8591 86.4529 21.6479C87.157 21.5247 87.8611 21.3487 88.53 21.0846C88.9348 20.9262 89.146 20.6798 89.1284 20.2221C89.1108 19.7996 89.1284 19.3596 89.1284 18.9195C89.1284 18.3914 88.9172 18.233 88.4067 18.3562C87.8963 18.4795 87.4034 18.5851 86.8929 18.6907C85.8016 18.9195 84.675 18.9195 83.5837 18.7259C82.0875 18.4266 81.1193 17.1417 81.2073 15.5574C81.3658 15.575 81.5418 15.5927 81.7002 15.6279ZM81.2601 12.9347C81.3129 12.5122 81.4362 12.1074 81.5946 11.7201C82.1227 10.4351 83.2316 9.99507 84.3582 10.0655C84.675 10.0831 84.9919 10.1535 85.2911 10.2767C85.7488 10.4703 86.048 10.8928 86.1008 11.3857C86.1536 11.6849 86.136 12.0017 86.048 12.301C85.8368 12.9347 85.3263 13.1987 84.7102 13.3219C84.3406 13.4099 83.9533 13.4452 83.5661 13.4099C82.8796 13.4099 82.1755 13.3571 81.489 13.2515C81.2249 13.2163 81.2249 13.2163 81.2601 12.9347Z" fill="#ECEDF0"/>
<path id="Vector_11" d="M141.074 15.8049C142.095 15.7345 143.116 15.5408 144.032 15.048C144.964 14.5903 145.616 13.7278 145.809 12.7068C145.933 12.0731 145.933 11.4043 145.792 10.7706C145.422 9.18634 144.419 8.20061 142.905 7.69014C142.06 7.4261 141.162 7.32048 140.282 7.35569C137.325 7.4261 135.072 8.92231 134.157 11.8795C133.54 13.8334 133.628 15.8225 134.227 17.7763C134.843 19.783 136.251 20.9976 138.258 21.5433C139.12 21.7545 140.018 21.8425 140.898 21.8073C142.183 21.7897 143.468 21.5433 144.683 21.0856C145.193 20.892 145.317 20.716 145.317 20.1703V18.9029C145.299 18.3924 145.088 18.2164 144.577 18.3396C144.19 18.4452 143.82 18.5332 143.433 18.6213C142.254 18.9029 141.022 18.9557 139.825 18.7445C138.628 18.5156 137.818 17.8292 137.501 16.6322C137.413 16.2801 137.343 15.9281 137.307 15.5584C137.395 15.5584 137.483 15.5584 137.554 15.5936C138.716 15.8049 139.895 15.8929 141.074 15.8049ZM137.395 12.9885C137.519 12.302 137.677 11.6331 138.1 11.0698C138.751 10.2073 139.649 9.96085 140.669 10.0665C140.757 10.0665 140.828 10.1017 140.916 10.1017C142.148 10.2953 142.447 11.281 142.218 12.2316C142.042 12.9357 141.462 13.1997 140.81 13.3229C140.458 13.3933 140.089 13.4285 139.719 13.4109C138.997 13.3933 138.293 13.3405 137.589 13.2349C137.431 13.2173 137.36 13.1469 137.395 12.9885Z" fill="#ECEDF0"/>
</g>
</g>
</g>
</g>
</g>
</svg>
