<svg width="69" height="19" viewBox="0 0 69 19" fill="none" xmlns="http://www.w3.org/2000/svg">
<g id="STRAMING SHORTLY APP LOGOS">
<mask id="mask0_338_7119" style="mask-type:alpha" maskUnits="userSpaceOnUse" x="0" y="0" width="69" height="19">
<rect id="Rectangle 17" y="0.978027" width="69" height="18" fill="#D9D9D9"/>
</mask>
<g mask="url(#mask0_338_7119)">
<g id="PRIME LOGO">
<mask id="mask1_338_7119" style="mask-type:alpha" maskUnits="userSpaceOnUse" x="6" y="0" width="58" height="19">
<rect id="Rectangle 15" x="6" y="0.978027" width="58" height="17.5758" fill="#D9D9D9"/>
</mask>
<g mask="url(#mask1_338_7119)">
<g id="Group 27">
<path id="Vector" d="M36.1826 18.0468V18.0199C36.2095 17.9863 36.2566 17.9661 36.297 17.9728C36.492 17.9661 36.6803 17.9661 36.8754 17.9728C36.9157 17.9728 36.9628 17.9863 36.9897 18.0199V18.0468H36.1826Z" fill="#D1EFFA"/>
<path id="Vector_2" d="M36.9893 18.0197C36.7202 18.013 36.4512 18.013 36.1822 18.0197C35.8123 17.9996 35.4424 17.9861 35.0725 17.9592C34.0905 17.8852 33.1153 17.7373 32.1603 17.5153C28.858 16.7486 25.9593 15.2085 23.4305 12.9688C23.1951 12.7603 22.9732 12.5451 22.7445 12.3299C22.6907 12.2828 22.6436 12.2156 22.6167 12.1483C22.5764 12.0542 22.5965 11.9533 22.6638 11.8793C22.731 11.8053 22.8387 11.7784 22.9328 11.8188C22.9933 11.8457 23.0539 11.8726 23.1077 11.9062C25.5222 13.3993 28.1586 14.4888 30.9228 15.1345C31.8509 15.3497 32.7858 15.5178 33.7274 15.6389C35.0792 15.807 36.4445 15.8676 37.8031 15.8205C38.5362 15.8003 39.2625 15.7331 39.9889 15.6389C41.6837 15.4237 43.3584 15.0403 44.9793 14.5023C45.8334 14.2198 46.6674 13.897 47.4812 13.5203C47.6022 13.4531 47.7502 13.4329 47.8847 13.4665C48.1066 13.5203 48.2412 13.749 48.1874 13.971C48.1806 13.9979 48.1672 14.0315 48.1537 14.0584C48.0999 14.1593 48.0259 14.2467 47.9318 14.314C47.1583 14.9193 46.3244 15.4506 45.4433 15.8945C43.7821 16.7352 42.0065 17.3337 40.1772 17.6767C39.1213 17.8651 38.0586 17.9794 36.9893 18.0197ZM27.0287 4.387C27.1968 4.28612 27.3717 4.17851 27.5533 4.08435C28.0241 3.84223 28.5487 3.72117 29.08 3.74807C29.4633 3.76825 29.8131 3.87586 30.0821 4.15833C30.3377 4.42063 30.4318 4.74346 30.4587 5.09319C30.4655 5.16717 30.4655 5.24115 30.4655 5.32186V8.80571C30.4655 9.10836 30.4251 9.14871 30.1225 9.14871H29.3019C29.2481 9.14871 29.1943 9.14871 29.1405 9.14199C29.0598 9.13526 28.9926 9.06801 28.9791 8.9873C28.9657 8.91332 28.9657 8.83934 28.9657 8.76535V5.65141C28.9724 5.52363 28.9589 5.40257 28.9253 5.28151C28.8715 5.07301 28.6832 4.92505 28.468 4.9116C28.0712 4.8847 27.6743 4.9654 27.3112 5.13354C27.2574 5.14699 27.2237 5.2008 27.2305 5.2546V8.79226C27.2305 8.85951 27.2305 8.92004 27.217 8.9873C27.217 9.08146 27.143 9.14871 27.0489 9.14871C26.948 9.15544 26.8471 9.15544 26.7395 9.15544H26.0266C25.7777 9.15544 25.7239 9.09491 25.7239 8.84606V5.66486C25.7239 5.55053 25.7172 5.42947 25.6903 5.31513C25.6432 5.08646 25.4482 4.92505 25.2195 4.9116C24.816 4.8847 24.4057 4.9654 24.0425 5.14027C23.9887 5.15372 23.9551 5.21425 23.9686 5.26805V8.85279C23.9686 9.10163 23.9147 9.15544 23.6659 9.15544H22.7647C22.5293 9.15544 22.4688 9.08818 22.4688 8.85951V4.19196C22.4688 4.13816 22.4755 4.08435 22.4889 4.03055C22.5158 3.94984 22.5965 3.90276 22.6772 3.90276H23.5179C23.639 3.90276 23.713 3.97674 23.7533 4.09108C23.787 4.18524 23.8071 4.27267 23.8408 4.37355C23.908 4.37355 23.9484 4.32647 23.9955 4.29957C24.3654 4.0709 24.7554 3.87586 25.1926 3.79515C25.5289 3.7279 25.8652 3.7279 26.2014 3.79515C26.5175 3.86241 26.8 4.05072 26.9816 4.31975C26.9951 4.33992 27.0085 4.35338 27.022 4.36683C27.0152 4.37355 27.022 4.37355 27.0287 4.387Z" fill="#00A8E1"/>
<path id="Vector_3" d="M40.9709 7.7366C41.0112 7.60209 41.0516 7.47431 41.0919 7.33979C41.4013 6.29733 41.7107 5.26159 42.0201 4.21913L42.0604 4.09807C42.094 3.97701 42.2084 3.90303 42.3294 3.90303H43.3517C43.6073 3.90303 43.6611 3.97701 43.5737 4.21913L43.1701 5.28849C42.7195 6.45874 42.2689 7.63572 41.8183 8.80597C41.8048 8.84632 41.7847 8.88668 41.7712 8.92703C41.7241 9.06827 41.5829 9.16243 41.4349 9.14897C41.139 9.14225 40.8431 9.14225 40.5472 9.14897C40.3387 9.1557 40.2176 9.06154 40.1436 8.87323C39.9755 8.42934 39.8006 7.97872 39.6325 7.53484C39.2289 6.47892 38.8187 5.42301 38.4151 4.36036C38.3748 4.27966 38.3479 4.1855 38.3277 4.09807C38.3075 3.96356 38.3546 3.8963 38.4891 3.8963C38.8725 3.88957 39.2558 3.8963 39.6325 3.8963C39.7939 3.8963 39.8679 4.00391 39.9082 4.14515C39.9822 4.40072 40.0562 4.66302 40.1369 4.91859C40.4126 5.85344 40.6817 6.79502 40.9574 7.72988C40.9507 7.7366 40.9574 7.7366 40.9709 7.7366Z" fill="white"/>
<path id="Vector_4" d="M17.089 4.64269C17.1361 4.62924 17.1765 4.60234 17.2034 4.56198C17.3244 4.44092 17.4522 4.32659 17.5867 4.21898C17.9364 3.94996 18.3736 3.81544 18.8108 3.84907C18.9856 3.8558 19.0462 3.9096 19.0596 4.07774C19.0731 4.30641 19.0663 4.54181 19.0663 4.77048C19.0731 4.86463 19.0663 4.95207 19.0529 5.04623C19.026 5.16729 18.9789 5.21436 18.8578 5.22782C18.7637 5.23454 18.6763 5.22782 18.5821 5.22109C18.1315 5.18074 17.6943 5.26817 17.2706 5.40941C17.1765 5.44303 17.1765 5.51029 17.1765 5.58427V8.81255C17.1765 8.87308 17.1765 8.92688 17.1697 8.98741C17.163 9.07485 17.0957 9.1421 17.0083 9.1421C16.9612 9.14883 16.9074 9.14883 16.8603 9.14883H15.986C15.9389 9.14883 15.8851 9.14883 15.8381 9.1421C15.7506 9.13538 15.6834 9.06139 15.6766 8.97396C15.6699 8.92016 15.6699 8.86635 15.6699 8.81255V4.23916C15.6699 3.92978 15.7035 3.89615 16.0129 3.89615H16.6586C16.8334 3.89615 16.9142 3.95668 16.9612 4.12482C17.0083 4.29296 17.0487 4.4611 17.089 4.64269ZM48.5513 11.4624C48.9952 11.4759 49.4323 11.5028 49.8628 11.6171C49.9838 11.6507 50.0981 11.6911 50.2125 11.7449C50.3672 11.8054 50.4681 11.9534 50.4882 12.1148C50.5151 12.3031 50.5219 12.4982 50.5084 12.6932C50.421 13.8433 50.0645 14.953 49.4727 15.9417C49.2574 16.2981 48.9952 16.6209 48.6925 16.9034C48.632 16.9639 48.558 17.011 48.4773 17.0379C48.3495 17.0716 48.2688 17.0043 48.2621 16.8765C48.2688 16.8093 48.2822 16.742 48.3091 16.6747C48.5445 16.0425 48.7732 15.4171 48.9548 14.7647C49.0624 14.4082 49.1364 14.045 49.1835 13.6751C49.1969 13.5406 49.2036 13.4061 49.1902 13.2716C49.1835 13.0429 49.0355 12.8479 48.8136 12.7806C48.6051 12.7134 48.3899 12.673 48.1679 12.6596C47.5492 12.6327 46.9304 12.6596 46.3184 12.7403L45.5046 12.8412C45.4171 12.8479 45.3364 12.8412 45.2894 12.7605C45.2423 12.6798 45.2625 12.599 45.3095 12.5183C45.3633 12.4444 45.4306 12.3771 45.5113 12.33C46.009 11.9736 46.5672 11.7584 47.1591 11.6171C47.6164 11.523 48.0805 11.4759 48.5513 11.4624Z" fill="#00A8E1"/>
<path id="Vector_5" d="M45.7331 6.52581V8.94701C45.7196 9.08153 45.6591 9.14206 45.5246 9.14878C45.1614 9.15551 44.805 9.15551 44.4418 9.14878C44.3073 9.14878 44.2467 9.08153 44.2333 8.95374C44.2266 8.91339 44.2266 8.86631 44.2266 8.82595V4.17186C44.2333 3.96336 44.2871 3.90283 44.4956 3.90283H45.4641C45.6726 3.90283 45.7331 3.96336 45.7331 4.17186V6.52581Z" fill="white"/>
<path id="Vector_6" d="M19.7118 6.51236V4.12478C19.7185 3.96336 19.7791 3.90283 19.9405 3.89611C20.2902 3.88938 20.6399 3.88938 20.9897 3.89611C21.1444 3.89611 21.1914 3.94318 21.2049 4.09787C21.2116 4.1584 21.2116 4.21221 21.2116 4.27274V8.75197C21.2116 8.82595 21.2049 8.89994 21.1982 8.97392C21.1914 9.06135 21.1242 9.12188 21.0367 9.12861C20.9964 9.13533 20.9628 9.13533 20.9224 9.13533H19.9876C19.9539 9.13533 19.927 9.13533 19.8934 9.12861C19.7992 9.12188 19.7185 9.0479 19.7118 8.95374C19.7051 8.89994 19.7051 8.84613 19.7051 8.79233C19.7118 8.04579 19.7118 7.27907 19.7118 6.51236ZM20.492 1.48835C20.5996 1.48162 20.7072 1.5018 20.8081 1.53543C21.1713 1.65649 21.3596 1.97259 21.3259 2.38285C21.299 2.73258 21.0367 3.01506 20.687 3.06886C20.5391 3.09576 20.3844 3.09576 20.2364 3.06886C19.853 2.99488 19.5706 2.7124 19.5975 2.22816C19.6378 1.75065 19.9539 1.48835 20.492 1.48835Z" fill="#00A8E1"/>
<path id="Vector_7" d="M44.9858 1.48829C45.1203 1.47484 45.2548 1.50174 45.3826 1.55555C45.6449 1.65643 45.8265 1.89855 45.8399 2.18103C45.8937 2.79305 45.4835 3.10243 44.9387 3.08898C44.8647 3.08898 44.7908 3.07553 44.7168 3.06208C44.2998 2.96119 44.0846 2.63836 44.1249 2.1743C44.1586 1.80439 44.4478 1.52864 44.8446 1.49502C44.8916 1.48829 44.9387 1.48157 44.9858 1.48829Z" fill="white"/>
<path id="Vector_8" d="M14.6741 5.96094C14.6472 5.61121 14.5531 5.26821 14.4118 4.95211C14.1361 4.37371 13.7124 3.95 13.0667 3.80203C12.3269 3.64062 11.6611 3.80203 11.0558 4.25265C11.0154 4.293 10.9683 4.32663 10.9145 4.35353C10.9011 4.3468 10.8876 4.34008 10.8876 4.33335C10.8675 4.2661 10.854 4.19884 10.8338 4.13159C10.78 3.96345 10.7128 3.90292 10.5312 3.90292C10.3294 3.90292 10.1209 3.90964 9.91916 3.90292C9.76447 3.89619 9.62323 3.91637 9.51562 4.03743C9.51562 6.39138 9.51562 8.75206 9.52235 11.0993C9.60978 11.2405 9.74429 11.2674 9.89898 11.2607C10.1411 11.254 10.3832 11.2607 10.6253 11.2607C11.0491 11.2607 11.0491 11.2607 11.0491 10.8437V8.92692C11.0491 8.87984 11.0289 8.82604 11.076 8.78569C11.4122 9.04798 11.8225 9.2094 12.2462 9.24975C12.8381 9.31028 13.3761 9.16232 13.8267 8.75878C14.1563 8.45613 14.3984 8.06605 14.5262 7.63561C14.7078 7.08411 14.7212 6.52589 14.6741 5.96094ZM13.0667 7.35314C13.0197 7.56163 12.912 7.74995 12.7574 7.89118C12.5825 8.03915 12.3673 8.12658 12.1386 8.12658C11.7956 8.14676 11.4593 8.07277 11.1567 7.91136C11.0827 7.87773 11.0356 7.80375 11.0423 7.72304V6.50572C11.0423 6.10218 11.0491 5.69865 11.0423 5.29511C11.0356 5.20095 11.0894 5.12025 11.1768 5.08662C11.5467 4.91175 11.9301 4.83105 12.3336 4.91175C12.6161 4.95211 12.8582 5.1337 12.9726 5.39599C13.0735 5.61121 13.134 5.84661 13.1474 6.082C13.1878 6.51244 13.1878 6.94288 13.0667 7.35314Z" fill="#00A8E1"/>
<path id="Vector_9" d="M63.3269 7.01002C63.3269 7.00329 63.3269 7.00329 63.3269 7.01002V7.01002ZM63.3336 6.10879V6.1357C63.3067 6.10879 63.2932 6.06844 63.3067 6.03481V5.98101C63.3067 5.98101 63.3067 5.97428 63.3134 5.97428H63.3067V5.90703H63.3201C63.3201 5.9003 63.3134 5.9003 63.3134 5.89357C63.3 5.76579 63.2731 5.638 63.2394 5.51694C62.9906 4.62917 62.4324 4.04404 61.5244 3.81537C61.1007 3.71449 60.6703 3.70104 60.2398 3.76829C59.3319 3.9028 58.6795 4.38705 58.3634 5.24792C58.054 6.06844 58.0607 6.96967 58.3701 7.79019C58.6391 8.53673 59.1772 9.00752 59.9506 9.20256C60.3609 9.30344 60.7913 9.33034 61.215 9.26981C62.6274 9.10168 63.2125 8.03231 63.3067 7.10418H63.3V7.01002C63.2932 6.96967 63.2865 6.93604 63.3269 6.90914V6.92259C63.3269 6.91586 63.3336 6.90241 63.3403 6.89569V6.12224C63.3403 6.11552 63.3336 6.11552 63.3336 6.10879ZM61.7194 7.38665C61.6791 7.52789 61.6186 7.65568 61.5311 7.77674C61.3832 7.98523 61.1478 8.11974 60.8922 8.13992C60.7644 8.15337 60.6366 8.15337 60.5088 8.12647C60.2264 8.07266 59.991 7.88435 59.8766 7.62205C59.7758 7.41356 59.7152 7.18489 59.695 6.95622C59.6614 6.55941 59.6547 6.1626 59.7489 5.77251C59.7825 5.61783 59.8497 5.46314 59.9304 5.32863C60.0784 5.08651 60.334 4.93182 60.6165 4.91164C60.7442 4.89819 60.872 4.89819 60.9998 4.92509C61.2688 4.9789 61.4908 5.15376 61.6118 5.40261C61.7262 5.638 61.7934 5.9003 61.8069 6.1626C61.8136 6.28366 61.8203 6.40472 61.8136 6.52578C61.8338 6.8217 61.8002 7.1109 61.7194 7.38665ZM51.5437 1.5354H50.6088C50.3532 1.5354 50.3061 1.58248 50.3061 1.83805V4.01714C50.3061 4.06422 50.3263 4.1113 50.2927 4.15838C50.2322 4.15165 50.1985 4.1113 50.1515 4.08439C49.452 3.67413 48.7189 3.60015 47.9791 3.94316C47.4612 4.18528 47.1384 4.62244 46.9299 5.14031C46.7281 5.638 46.6811 6.1626 46.6945 6.69392C46.6945 7.19161 46.8088 7.68258 47.0308 8.12647C47.2864 8.61743 47.6563 8.99407 48.1943 9.15548C48.9274 9.38415 49.6134 9.26981 50.2389 8.80575C50.286 8.77885 50.3129 8.73177 50.3734 8.71832C50.407 8.7923 50.4339 8.87301 50.4474 8.95371C50.4743 9.06132 50.5684 9.1353 50.6828 9.1353H50.8442C51.0863 9.1353 51.3217 9.14203 51.5571 9.1353C51.7454 9.1353 51.7992 9.07477 51.8059 8.87973V1.79097C51.7992 1.58248 51.7454 1.5354 51.5437 1.5354ZM50.3129 6.48542V7.70948C50.3263 7.79019 50.2792 7.86417 50.2053 7.8978C49.8824 8.07939 49.5125 8.15337 49.1493 8.09956C48.84 8.06594 48.5709 7.87762 48.4297 7.60187C48.3221 7.38665 48.2616 7.15798 48.2414 6.92259C48.1876 6.49888 48.2212 6.06844 48.3221 5.65818C48.3557 5.54384 48.3961 5.43624 48.4566 5.32863C48.5978 5.06633 48.8669 4.89819 49.1628 4.87801C49.5193 4.84438 49.8757 4.91164 50.1985 5.0596C50.2792 5.08651 50.3263 5.16721 50.3196 5.25464C50.3061 5.67163 50.3129 6.07516 50.3129 6.48542Z" fill="white"/>
<path id="Vector_10" d="M32.9207 6.94929C33.4251 7.04345 33.943 7.05018 34.4474 6.96947C34.7434 6.92912 35.0258 6.84168 35.2881 6.70045C35.5908 6.52558 35.8127 6.28346 35.9069 5.94718C36.1423 5.09976 35.7791 4.24561 34.898 3.92951C34.4676 3.78827 34.0103 3.74119 33.5596 3.80172C32.497 3.92278 31.8043 4.50791 31.4882 5.52347C31.2662 6.2162 31.2931 6.92239 31.4747 7.62185C31.7101 8.51635 32.302 9.04767 33.1965 9.23599C33.7076 9.35032 34.2255 9.33015 34.7366 9.24944C35.0056 9.20236 35.2747 9.13511 35.5302 9.03422C35.6849 8.97369 35.7656 8.87953 35.7589 8.70467C35.7522 8.54325 35.7589 8.37512 35.7589 8.20698C35.7589 8.00521 35.6782 7.94468 35.4832 7.99176C35.2881 8.03884 35.0998 8.07919 34.9048 8.11954C34.4878 8.20698 34.0573 8.20698 33.6404 8.13299C33.0687 8.01866 32.6988 7.52769 32.7324 6.92239C32.7929 6.92912 32.8602 6.93584 32.9207 6.94929ZM32.7526 5.92028C32.7728 5.75887 32.8198 5.60418 32.8804 5.45621C33.0821 4.96525 33.5058 4.79711 33.9363 4.82401C34.0573 4.83074 34.1784 4.85764 34.2927 4.90472C34.4676 4.9787 34.5819 5.14011 34.6021 5.32843C34.6223 5.44276 34.6156 5.56382 34.5819 5.67816C34.5012 5.92028 34.3062 6.02116 34.0708 6.06824C33.9296 6.10187 33.7816 6.11532 33.6336 6.10187C33.3713 6.10187 33.1023 6.08169 32.84 6.04134C32.7391 6.02789 32.7391 6.02789 32.7526 5.92028Z" fill="#00A8E1"/>
<path id="Vector_11" d="M55.6062 7.01692C55.9963 6.99002 56.3864 6.91604 56.7361 6.72772C57.0926 6.55285 57.3414 6.2233 57.4154 5.83322C57.4625 5.5911 57.4625 5.33552 57.4087 5.0934C57.2674 4.4881 56.8841 4.11147 56.3057 3.91643C55.9829 3.81554 55.6398 3.77519 55.3036 3.78864C54.1737 3.81554 53.3128 4.38722 52.9631 5.51712C52.7277 6.26365 52.7613 7.02364 52.99 7.77018C53.2254 8.5369 53.7634 9.00096 54.5301 9.20946C54.8597 9.29016 55.2027 9.32379 55.539 9.31034C56.0299 9.30362 56.5209 9.20946 56.985 9.03459C57.18 8.96061 57.2271 8.89336 57.2271 8.68486V8.20062C57.2204 8.00558 57.1397 7.93832 56.9446 7.9854C56.7966 8.02576 56.6554 8.05938 56.5074 8.09301C56.0568 8.20062 55.586 8.2208 55.1287 8.14009C54.6714 8.05266 54.362 7.79036 54.2409 7.33302C54.2073 7.19851 54.1804 7.064 54.1669 6.92276C54.2006 6.92276 54.2342 6.92276 54.2611 6.93621C54.705 7.01692 55.1556 7.05055 55.6062 7.01692ZM54.2006 5.94083C54.2477 5.67853 54.3082 5.42296 54.4696 5.20774C54.7184 4.87819 55.0614 4.78403 55.4515 4.82438C55.4852 4.82438 55.5121 4.83783 55.5457 4.83783C56.0165 4.91181 56.1308 5.28845 56.0434 5.65163C55.9761 5.92065 55.7542 6.02153 55.5053 6.06861C55.3708 6.09552 55.2296 6.10897 55.0883 6.10224C54.8126 6.09552 54.5436 6.07534 54.2746 6.03498C54.214 6.02826 54.1871 6.00136 54.2006 5.94083Z" fill="white"/>
</g>
</g>
</g>
</g>
</g>
</svg>
