<svg width="69" height="19" viewBox="0 0 69 19" fill="none" xmlns="http://www.w3.org/2000/svg">
<g id="STRAMING SHORTLY APP LOGOS">
<mask id="mask0_338_7184" style="mask-type:alpha" maskUnits="userSpaceOnUse" x="0" y="0" width="69" height="19">
<rect id="Rectangle 17" y="0.978027" width="69" height="18" fill="#D9D9D9"/>
</mask>
<g mask="url(#mask0_338_7184)">
<g id="Group 53">
<g id="&#240;&#159;&#166;&#134; icon &#34;brand sony&#34;">
<path id="Vector" d="M34.0618 8.74685C32.8706 8.78408 31.7167 8.78408 30.5255 8.78408H30.265C30.1905 8.74685 30.1533 8.78408 30.1533 8.85853V9.30521C30.1533 9.41688 30.1905 9.41688 30.265 9.41688C30.6 9.45411 30.8978 9.45411 31.1956 9.45411C31.4933 9.49133 31.605 9.56578 31.605 9.86357C31.6422 9.93802 31.6422 10.0125 31.6422 10.0497L31.605 12.7298V12.8787L31.4189 12.6926C30.7861 11.9109 30.1161 11.1292 29.446 10.3475C29.0366 9.86357 28.6271 9.34244 28.2176 8.85853C28.1804 8.78408 28.1432 8.78408 28.0315 8.78408H24.7186C24.6441 8.78408 24.6069 8.78408 24.6069 8.85853V9.30521C24.6069 9.37966 24.6069 9.41688 24.7186 9.41688C25.0164 9.45411 25.3514 9.45411 25.6864 9.49133C25.947 9.49133 26.0587 9.56578 26.0587 9.86357V13.2137C26.0587 13.3998 26.0959 13.5487 26.0587 13.6976C26.0214 14.0327 25.9098 14.1443 25.612 14.1443C25.3142 14.1815 25.0164 14.1815 24.7186 14.1815C24.6441 14.1815 24.6069 14.1815 24.6069 14.2932V14.6655C24.6069 14.7771 24.6441 14.8144 24.7558 14.8144H28.4038C28.5154 14.8144 28.6643 14.8516 28.7388 14.8144C28.8132 14.7399 28.7388 14.591 28.7388 14.4793C28.7388 14.1815 28.7388 14.1815 28.441 14.1815C28.1804 14.1815 27.9198 14.2188 27.6593 14.1815C27.4732 14.1443 27.3615 14.0327 27.3243 13.8465C27.287 13.6976 27.287 13.5487 27.287 13.3998V10.5708C27.287 10.4964 27.2498 10.3847 27.3243 10.273C27.3615 10.3475 27.4359 10.3847 27.5104 10.4592C27.8082 10.8314 28.1432 11.2036 28.441 11.5759C28.9249 12.1715 29.4088 12.7298 29.8927 13.3254C30.3022 13.7721 30.6372 14.256 31.0467 14.6655C31.1211 14.7399 31.1583 14.8144 31.27 14.8144H32.759C32.8334 14.8144 32.8706 14.8144 32.8706 14.7027C32.8334 14.1443 32.8334 13.586 32.8334 13.0276C32.8334 11.9481 32.8334 10.8686 32.8706 9.78912C32.9079 9.56578 32.9823 9.49133 33.2056 9.45411C33.2801 9.41688 33.3545 9.41688 33.429 9.41688H34.1362C34.2107 9.41688 34.2479 9.41688 34.2479 9.30521C34.2479 9.19354 34.2107 9.04465 34.2479 8.93297C34.2479 8.78408 34.1735 8.74685 34.0618 8.74685ZM22.2618 9.37966C21.3684 8.85853 20.4006 8.63518 19.3583 8.63518C18.6511 8.63518 17.9438 8.74685 17.2366 9.00742C16.5665 9.26799 15.9337 9.64023 15.4871 10.2358C14.7426 11.2036 14.7426 12.5437 15.4871 13.4743C15.8965 13.9954 16.4177 14.3304 17.0132 14.5538C18.1672 14.9632 19.3211 15.0749 20.5123 14.8516C21.2568 14.7399 21.964 14.4793 22.5968 14.0327C23.5274 13.3254 23.8624 12.3576 23.6391 11.2409C23.4902 10.4219 22.9691 9.82635 22.2618 9.37966ZM21.7035 12.5065C21.5546 13.2509 21.1079 13.7721 20.4006 14.0699C19.7306 14.3304 19.0233 14.3677 18.3533 14.1071C17.4971 13.8093 17.0505 13.1393 16.9016 12.2831C16.8271 11.7992 16.8271 11.3525 16.976 10.9058C17.2366 10.0497 17.9066 9.603 18.7628 9.41688C18.9489 9.37966 19.1722 9.34244 19.3211 9.34244C19.805 9.34244 20.1773 9.41688 20.5495 9.56578C21.1079 9.78912 21.4057 10.2358 21.5918 10.7569C21.7779 11.3525 21.8523 11.9109 21.7035 12.5065ZM12.5464 11.4642C11.7274 11.1664 10.8713 11.092 10.0524 10.9431C9.6429 10.9058 9.19621 10.8686 8.82397 10.6453C8.45173 10.4964 8.37729 10.0869 8.63785 9.78912C8.82397 9.56578 9.08454 9.49133 9.34511 9.41688C10.0896 9.26799 10.7968 9.34244 11.5041 9.67745C11.9136 9.82635 12.2486 10.1241 12.4347 10.4964C12.5091 10.6453 12.5836 10.7942 12.6208 10.9803C12.6208 11.0175 12.658 11.0547 12.7325 11.0547H13.4025C13.477 11.0547 13.5142 11.0547 13.5142 10.9803V8.85853C13.5142 8.78408 13.477 8.74685 13.4397 8.74685C13.2164 8.78408 12.9558 8.70963 12.7697 8.78408C12.5836 8.8213 12.5464 9.04465 12.4347 9.19354C12.3975 9.26799 12.3602 9.30521 12.2858 9.23076C12.0625 9.11909 11.8019 8.9702 11.5785 8.89575C10.7596 8.59796 9.90347 8.56073 9.04732 8.67241C8.52618 8.78408 8.00505 8.93297 7.59558 9.30521C7.18612 9.603 7 10.0125 7 10.5336C7.03722 11.1292 7.33502 11.5386 7.85615 11.7992C8.19117 11.9481 8.52618 12.0226 8.82397 12.0598L11.3924 12.5065C11.7274 12.5809 12.0625 12.6554 12.3602 12.8415C12.6953 13.1021 12.7325 13.5487 12.3975 13.8465C12.2113 13.9954 11.988 14.0699 11.7647 14.1071C11.1691 14.2188 10.5363 14.2188 9.94069 14.0699C9.6429 13.9954 9.34511 13.8838 9.04732 13.7349C8.52618 13.4371 8.19117 12.9904 8.07949 12.3948C8.04227 12.2831 8.00505 12.2087 7.85615 12.2459H7.26057C7.18612 12.2459 7.1489 12.2831 7.1489 12.3576V14.7027C7.1489 14.7771 7.18612 14.8144 7.26057 14.8144H7.9306C8.00505 14.8144 8.04227 14.8144 8.07949 14.7399C8.15394 14.591 8.22839 14.4421 8.26561 14.2932C8.34006 14.2188 8.37729 14.1815 8.45173 14.256C8.74952 14.4793 9.08454 14.6655 9.45678 14.7771C10.2757 15.0005 11.0574 15.0377 11.8763 14.8888C12.3975 14.8144 12.9186 14.6655 13.3653 14.3677C14.1098 13.8465 14.2214 12.7298 13.6259 12.097C13.2908 11.762 12.9558 11.5759 12.5464 11.4642ZM44.2239 9.30521V8.93297C44.2239 8.78408 44.1867 8.74685 44.075 8.78408H42.1022C41.5066 8.78408 40.911 8.78408 40.3154 8.74685C40.2037 8.74685 40.1665 8.78408 40.1665 8.89575V9.30521C40.1665 9.37966 40.2037 9.41688 40.2782 9.41688H41.0599C41.1343 9.41688 41.2088 9.45411 41.2832 9.49133C41.3949 9.52856 41.4321 9.56578 41.3577 9.67745C41.3205 9.7519 41.2832 9.82635 41.2088 9.9008C40.9854 10.273 40.6504 10.5336 40.3526 10.8686L39.906 11.3153C39.8315 11.3898 39.7943 11.3525 39.7571 11.3153C39.6826 11.2036 39.5709 11.1292 39.4593 11.0175C39.1242 10.6453 38.752 10.273 38.417 9.9008C38.3425 9.82635 38.2309 9.71468 38.3053 9.603C38.3425 9.45411 38.4914 9.45411 38.6031 9.45411C38.9009 9.41688 39.1987 9.41688 39.4965 9.41688C39.6082 9.41688 39.6826 9.41688 39.6454 9.26799V8.93297C39.6826 8.78408 39.6082 8.78408 39.4965 8.78408H35.1413C35.0296 8.78408 35.0296 8.78408 35.0296 8.89575V9.34244C35.0296 9.41688 35.0296 9.41688 35.1041 9.41688H35.4391C35.8485 9.45411 36.2208 9.56578 36.4813 9.9008C36.5558 10.0125 36.6675 10.0869 36.7791 10.1986L38.752 12.097C38.8265 12.1342 38.8637 12.2087 38.8637 12.3204V13.8093C38.8265 13.9954 38.752 14.1071 38.5659 14.1443C38.417 14.1815 38.2681 14.1815 38.082 14.1815C37.8214 14.1815 37.5608 14.1443 37.3375 14.1815C37.2258 14.1815 37.1886 14.2188 37.2258 14.2932V14.7027C37.1886 14.8144 37.2258 14.8144 37.3375 14.8144H39.7198C40.5015 14.8144 41.2832 14.8144 42.0649 14.8516C42.1766 14.8516 42.2138 14.8144 42.2138 14.7027V14.3304C42.2138 14.2188 42.1766 14.1815 42.0649 14.1815H41.0227C40.6504 14.1815 40.5388 13.9582 40.5388 13.6604V12.3204C40.5388 12.2459 40.5388 12.1715 40.6132 12.097C40.911 11.7992 41.1716 11.5014 41.4694 11.2409C41.916 10.7942 42.2883 10.3103 42.7722 9.9008C42.9955 9.67745 43.2189 9.49133 43.5539 9.45411H44.1123C44.1867 9.41688 44.2239 9.37966 44.2239 9.30521Z" fill="white"/>
</g>
<g id="Group 42">
<rect id="Rectangle 36" x="46.2236" y="5.46338" width="2.37869" height="9.51475" rx="0.205483" fill="#FEC302"/>
<g id="Group 41">
<rect id="Rectangle 37" x="49.5537" y="9.03125" width="2.37869" height="5.94672" rx="0.205483" fill="#FEC302"/>
<rect id="Rectangle 38" x="49.5537" y="7.12842" width="2.37869" height="1.42721" rx="0.205483" fill="#FEC302"/>
</g>
<path id="Vector 8" d="M55.0248 14.0266L53.362 10.5054C53.1858 10.1322 53.0977 9.94559 53.2119 9.75686C53.326 9.56813 53.4893 9.56133 53.8158 9.54772C55.1407 9.49251 56.1538 10.753 56.452 11.6479C56.9278 10.6171 58.0695 8.17498 58.8307 6.65262C59.7822 4.74967 60.9715 4.98754 61.5662 4.98754C62.0419 4.98754 62.0023 5.3047 61.923 5.46328L58.397 12.9561C57.7603 14.2644 57.5224 14.7402 56.571 14.8591C55.8574 14.9483 55.3816 14.6212 55.0248 14.0266Z" fill="#FEC302"/>
</g>
</g>
</g>
</g>
</svg>
