<svg width="69" height="19" viewBox="0 0 69 19" fill="none" xmlns="http://www.w3.org/2000/svg">
<g id="STRAMING SHORTLY APP LOGOS">
<mask id="mask0_338_7155" style="mask-type:alpha" maskUnits="userSpaceOnUse" x="0" y="0" width="69" height="19">
<rect id="Rectangle 17" y="0.978027" width="69" height="18" fill="#D9D9D9"/>
</mask>
<g mask="url(#mask0_338_7155)">
<g id="Group 47">
<g id="Group 46">
<path id="Vector 11" d="M32.8514 1.97803H31.4023V5.58219C31.4271 6.20146 31.9225 7.44 33.706 7.44C35.4895 7.44 36.0345 6.20146 36.084 5.58219V1.97803H34.5978V5.54503C34.5978 5.99091 34.2634 6.251 33.706 6.251C33.1115 6.251 32.8638 5.80513 32.8514 5.58219V1.97803Z" fill="white"/>
<path id="Vector 10" d="M31.0745 2.8723L30.2487 3.69809C30.1649 3.63825 29.9327 3.47548 29.6742 3.30315C29.3511 3.08772 28.7407 2.98001 28.6689 3.48266C28.5971 3.98532 29.9974 4.23664 30.2128 4.34435C30.4282 4.45207 31.613 4.99062 31.1463 6.21135C30.6795 7.43208 29.5665 7.46798 28.7407 7.43208C28.0801 7.40336 27.2926 6.72597 26.9814 6.39087L27.8431 5.52918C28.1902 5.91215 29.028 6.46268 29.5665 6.13954C30.0333 5.7446 29.6024 5.38556 29.2793 5.27785C28.8245 5.15817 27.858 4.78172 27.52 4.30845C27.161 3.8058 27.0349 2.44604 28.633 2.04651C29.7819 1.75928 30.7872 2.44146 31.0745 2.8723Z" fill="white"/>
<path id="Vector 12" d="M37.7392 1.97803H36.2324V7.44H37.6262V4.08748L39.698 7.44H41.167V1.97803H39.698V5.10454L37.7392 1.97803Z" fill="white"/>
</g>
<g id="Group 45">
<path id="Subtract" fill-rule="evenodd" clip-rule="evenodd" d="M22.2686 7.73682H23.7648C23.9952 7.73682 24.1104 7.73682 24.2067 7.79002C24.3029 7.84322 24.3642 7.94077 24.4867 8.13587L27.8724 13.5253V8.66361C27.8724 8.2617 27.8724 8.06074 27.9973 7.93589C28.1221 7.81103 28.3231 7.81103 28.725 7.81103H32.3631C32.5809 7.81103 32.6897 7.81103 32.7823 7.8593C32.8749 7.90757 32.9373 7.99682 33.062 8.17533L34.3276 9.98692C33.481 10.0956 32.7489 10.5702 32.2948 11.2469L30.4698 8.44183V16.9391L32.1767 14.3788L32.2472 14.3947C32.671 15.0695 33.3656 15.557 34.1785 15.7049L34.1062 15.9001L32.9504 17.573C32.8259 17.7532 32.7636 17.8433 32.6706 17.8921C32.5776 17.9409 32.468 17.9409 32.249 17.9409H28.3523C28.1179 17.9409 28.0006 17.9409 27.9033 17.8861C27.8059 17.8313 27.7451 17.7311 27.6234 17.5307L23.9763 11.5216V17.0883C23.9763 17.4902 23.9763 17.6912 23.8515 17.8161C23.7266 17.9409 23.5256 17.9409 23.1237 17.9409H22.2686C21.8667 17.9409 21.6657 17.9409 21.5409 17.8161C21.416 17.6912 21.416 17.4902 21.416 17.0883V8.5894C21.416 8.18749 21.416 7.98653 21.5409 7.86167C21.6657 7.73682 21.8667 7.73682 22.2686 7.73682ZM35.232 15.7029C35.2535 15.7368 35.2806 15.7756 35.3132 15.822L35.3678 15.9001L36.5601 17.5815C36.685 17.7577 36.7474 17.8457 36.8395 17.8933C36.9316 17.9409 37.0396 17.9409 37.2555 17.9409H38.1023C38.8088 17.9409 39.1621 17.9409 39.2823 17.7144C39.4025 17.4879 39.2044 17.1954 38.8083 16.6103L37.2973 14.3788L37.1853 14.3414C36.7669 15.0408 36.0616 15.5488 35.232 15.7029ZM37.1439 11.3064L37.8808 10.201C37.9221 10.1391 37.9428 10.1081 37.9742 10.0913C38.0056 10.0745 38.0429 10.0745 38.1173 10.0745H41.5274V17.1254C41.5274 17.5274 41.5274 17.7283 41.6522 17.8532C41.7771 17.978 41.978 17.978 42.3799 17.978H43.198C43.5999 17.978 43.8008 17.978 43.9257 17.8532C44.0506 17.7283 44.0506 17.5274 44.0506 17.1254V10.0745H45.9067C46.3086 10.0745 46.5096 10.0745 46.6344 9.94963C46.7593 9.82477 46.7593 9.62381 46.7593 9.2219V8.66361C46.7593 8.2617 46.7593 8.06074 46.6344 7.93589C46.5096 7.81103 46.3086 7.81103 45.9067 7.81103H37.1334C36.9226 7.81103 36.8171 7.81103 36.7266 7.85666C36.6361 7.9023 36.5734 7.98706 36.448 8.15658L35.0921 9.98954C35.9549 10.1064 36.6969 10.6034 37.1439 11.3064Z" fill="white"/>
<path id="Polygon 2" d="M36.2588 12.8573L33.9211 14.2069L33.9211 11.5076L36.2588 12.8573Z" fill="#FEDA31"/>
</g>
</g>
</g>
</g>
</svg>
