<svg width="69" height="19" viewBox="0 0 69 19" fill="none" xmlns="http://www.w3.org/2000/svg">
<g id="STRAMING SHORTLY APP LOGOS">
<mask id="mask0_338_7187" style="mask-type:alpha" maskUnits="userSpaceOnUse" x="0" y="0" width="69" height="19">
<rect id="Rectangle 17" y="0.978027" width="69" height="18" fill="#D9D9D9"/>
</mask>
<g mask="url(#mask0_338_7187)">
<g id="Group">
<path id="Vector" fill-rule="evenodd" clip-rule="evenodd" d="M23.5871 15.6108C23.509 15.8224 23.312 15.9667 23.0863 15.9767H20.3546C20.1289 15.9667 19.9319 15.8224 19.8538 15.6108L17.1715 7.08971C17.1154 6.95349 17.1808 6.7979 17.317 6.74181L17.4406 6.72312H19.4498C19.6742 6.73247 19.8698 6.87937 19.9413 7.09238L21.6146 12.9084C21.6727 13.1114 21.7695 13.1114 21.8283 12.9084L23.4997 7.09171C23.5711 6.8787 23.7667 6.7318 23.9911 6.72245H26.0003C26.1473 6.70976 26.2761 6.8186 26.2888 6.96551L26.2701 7.08904L23.5871 15.6108ZM26.6414 12.234V10.0865C26.6414 8.18614 27.5362 6.34451 30.8301 6.34451C34.1241 6.34451 35.0182 8.18614 35.0182 10.0865V12.234C35.0182 14.1337 34.1234 15.9767 30.8301 15.9767C27.5368 15.9767 26.6414 14.1337 26.6414 12.234ZM32.2778 12.3101V10.0104C32.2778 9.13634 31.8211 8.64154 30.8321 8.64154C29.8432 8.64154 29.3865 9.13567 29.3865 10.0104V12.3101C29.3865 13.1842 29.8419 13.6783 30.8321 13.6783C31.8217 13.6783 32.2778 13.1842 32.2778 12.3101ZM35.941 12.234V10.0865C35.941 8.18614 36.8365 6.34451 40.1304 6.34451C43.4244 6.34451 44.3185 8.18614 44.3185 10.0865V12.234C44.3185 14.1337 43.4238 15.9767 40.1304 15.9767C36.8371 15.9767 35.941 14.1337 35.941 12.234ZM41.5774 12.3101V10.0104C41.5774 9.13634 41.1194 8.64154 40.1318 8.64154C39.1442 8.64154 38.6861 9.13567 38.6861 10.0104V12.3101C38.6861 13.1842 39.1442 13.6783 40.1318 13.6783C41.1194 13.6783 41.5774 13.1842 41.5774 12.3101ZM51.2343 15.2816L51.052 14.1144L51.0147 13.9588C50.9632 13.7825 50.8016 13.661 50.618 13.6603L50.4684 13.683C50.2554 13.7177 50.0397 13.7351 49.8241 13.7357C49.6658 13.7658 49.5042 13.7024 49.4087 13.5728C49.3146 13.3391 49.2618 13.0907 49.2525 12.8383V9.12232C49.2531 8.90997 49.4254 8.73836 49.6378 8.7377H50.829C51.044 8.73436 51.2223 8.56876 51.2403 8.35441L51.3392 6.91676C51.3545 6.72111 51.209 6.55017 51.0133 6.53481L50.9806 6.53348H49.6364C49.4241 6.53348 49.2525 6.36187 49.2511 6.14953V4.3139C49.2565 4.13361 49.1143 3.98337 48.934 3.97803L48.8699 3.9827L46.8907 4.25781C46.6757 4.2932 46.5154 4.47616 46.5094 4.69452V6.14953C46.5087 6.36187 46.3364 6.53348 46.1241 6.53348H45.6387C45.4263 6.53348 45.2547 6.70509 45.2534 6.91743V8.35374C45.254 8.56609 45.4263 8.7377 45.6387 8.7377H46.1241C46.3364 8.7377 46.5087 8.90997 46.5094 9.12232V13.6035C46.5094 15.3136 47.5377 15.978 49.3079 15.978C49.8468 15.9707 50.383 15.8952 50.9031 15.7537L50.9098 15.7477C51.1021 15.7083 51.241 15.5393 51.2417 15.343L51.2297 15.2849L51.2343 15.2816Z" fill="#6B0CDA"/>
</g>
</g>
</g>
</svg>
