<svg width="22" height="23" viewBox="0 0 22 23" fill="none" xmlns="http://www.w3.org/2000/svg">
<g id="Group 44">
<path id="Ellipse 19" d="M6.74206 2.70587C4.3054 3.82478 2.40713 5.85789 1.45779 8.36548C0.508458 10.8731 0.584373 13.6536 1.66912 16.1056C2.75386 18.5577 4.76024 20.4842 7.25432 21.4685C9.7484 22.4528 12.5297 22.4157 14.9967 21.3654L14.6825 20.6275C12.4094 21.5953 9.84676 21.6294 7.54872 20.7225C5.25068 19.8156 3.402 18.0405 2.40252 15.7812C1.40304 13.5219 1.33309 10.9599 2.20781 8.64942C3.08252 6.33893 4.83159 4.46563 7.07672 3.43467L6.74206 2.70587Z" fill="#00C219"/>
<path id="Ellipse 20" d="M11 0.978027C9.55546 0.978027 8.12506 1.26255 6.79048 1.81535C5.4559 2.36815 4.24327 3.17841 3.22183 4.19985C2.20038 5.2213 1.39013 6.43393 0.837325 7.76851C0.284523 9.10309 -4.59169e-08 10.5335 0 11.978C4.59169e-08 13.4226 0.284523 14.853 0.837325 16.1875C1.39013 17.5221 2.20038 18.7348 3.22183 19.7562C4.24327 20.7776 5.4559 21.5879 6.79048 22.1407C8.12506 22.6935 9.55546 22.978 11 22.978V22.1774C9.6606 22.1774 8.33431 21.9136 7.09687 21.401C5.85942 20.8885 4.73505 20.1372 3.78795 19.1901C2.84085 18.243 2.08957 17.1186 1.577 15.8812C1.06444 14.6437 0.800621 13.3174 0.800621 11.978C0.800621 10.6386 1.06444 9.31234 1.577 8.07489C2.08957 6.83745 2.84085 5.71308 3.78795 4.76598C4.73505 3.81888 5.85942 3.0676 7.09687 2.55503C8.33431 2.04246 9.6606 1.77865 11 1.77865V0.978027Z" fill="#00C1D4"/>
<path id="Ellipse 17" d="M5.15124 5.66158C3.476 7.21285 2.48561 9.36607 2.39795 11.6476C2.31029 13.929 3.13253 16.1519 4.6838 17.8271C6.23507 19.5024 8.38829 20.4928 10.6698 20.5804C12.9513 20.6681 15.1741 19.8458 16.8494 18.2946L16.3075 17.7094C14.7874 19.1169 12.7705 19.863 10.7004 19.7834C8.63028 19.7039 6.67655 18.8053 5.26901 17.2852C3.86146 15.7652 3.11539 13.7483 3.19493 11.6782C3.27447 9.60806 4.1731 7.65434 5.69314 6.24679L5.15124 5.66158Z" fill="#FF6110"/>
<path id="Ellipse 18" d="M15.6623 3.8095C14.5896 3.19717 13.4068 2.80213 12.1814 2.64693C10.956 2.49173 9.71202 2.57941 8.5205 2.90496C7.32899 3.23052 6.21327 3.78757 5.23704 4.54431C4.26081 5.30105 3.44319 6.24267 2.83086 7.3154C2.21854 8.38812 1.82349 9.57095 1.66829 10.7964C1.51309 12.0217 1.60077 13.2657 1.92633 14.4572C2.25188 15.6487 2.80893 16.7645 3.56567 17.7407C4.32242 18.7169 5.26403 19.5345 6.33676 20.1469L6.73182 19.4548C5.74998 18.8943 4.88814 18.146 4.19551 17.2525C3.50288 16.3589 2.99303 15.3378 2.69506 14.2472C2.39709 13.1566 2.31684 12.0181 2.45889 10.8965C2.60094 9.77491 2.96251 8.69229 3.52296 7.71045C4.0834 6.72861 4.83175 5.86678 5.72527 5.17415C6.61879 4.48152 7.63998 3.97167 8.73054 3.6737C9.8211 3.37573 10.9597 3.29548 12.0812 3.43753C13.2028 3.57958 14.2854 3.94115 15.2673 4.5016L15.6623 3.8095Z" fill="#FFB700"/>
<path id="Ellipse 16" d="M12.63 4.33831C11.6267 4.12427 10.5911 4.10993 9.58233 4.29611C8.57354 4.48229 7.61129 4.86535 6.75053 5.42341C5.88977 5.98146 5.14736 6.7036 4.56568 7.54857C3.984 8.39355 3.57445 9.34482 3.36041 10.3481C3.14637 11.3513 3.13203 12.3869 3.31821 13.3957C3.50439 14.4045 3.88744 15.3668 4.4455 16.2275C5.00356 17.0883 5.72569 17.8307 6.57067 18.4124C7.41564 18.994 8.36692 19.4036 9.37017 19.6176L9.5372 18.8347C8.63675 18.6426 7.78296 18.2751 7.02458 17.753C6.26619 17.2309 5.61806 16.5646 5.11719 15.792C4.61632 15.0195 4.27252 14.1558 4.10542 13.2504C3.93832 12.345 3.95119 11.4155 4.1433 10.5151C4.33541 9.61466 4.70299 8.76087 5.22506 8.00248C5.74713 7.2441 6.41346 6.59597 7.18601 6.0951C7.95856 5.59423 8.8222 5.25043 9.72762 5.08333C10.633 4.91623 11.5625 4.9291 12.4629 5.12121L12.63 4.33831Z" fill="#FF2E9B"/>
<path id="Exclude" fill-rule="evenodd" clip-rule="evenodd" d="M6.04228 7.02262C4.72525 8.34097 3.98535 10.129 3.98535 11.9935C3.98532 12.9167 4.16694 13.8308 4.51985 14.6838C4.87277 15.5367 5.39006 16.3117 6.04219 16.9645C6.69432 17.6173 7.46851 18.1351 8.32058 18.4884C9.17264 18.8417 10.0859 19.0236 11.0081 19.0236C11.9304 19.0236 12.8436 18.8417 13.6957 18.4884C14.5478 18.1351 15.322 17.6173 15.9741 16.9645C16.6262 16.3117 17.1435 15.5367 17.4964 14.6838C17.8223 13.8962 18.0021 13.0565 18.0277 12.2056C18.0319 12.135 18.0349 12.0644 18.0369 11.9937C18.0358 11.8717 18.0315 11.7498 18.024 11.628H18.0214C18.0082 11.3737 17.9813 11.1214 17.941 10.872H17.9437C17.9071 10.6474 17.8597 10.4247 17.8016 10.2048L17.7998 10.2048C17.4861 9.01115 16.8609 7.91038 15.974 7.02262C14.657 5.70427 12.8707 4.96362 11.0081 4.96362C9.14558 4.96362 7.35931 5.70427 6.04228 7.02262ZM17.7998 10.2048L16.7577 10.2037L15.415 10.2052V13.7358H17.8089C17.8659 13.5127 17.912 13.2869 17.947 13.0592H16.1767V12.2976H18.0218C18.0239 12.2669 18.0259 12.2363 18.0277 12.2056C18.0299 12.135 18.0309 12.0642 18.0309 11.9935C18.0309 11.8713 18.0278 11.7494 18.0214 11.628H16.1767V10.872H17.941C17.9047 10.6469 17.8575 10.4243 17.7998 10.2048ZM10.9214 10.2102H8.04824L8.04834 10.8794H9.93577L7.98818 13.1461V13.7424H10.924L10.9231 13.0743H8.96819L10.9214 10.8062V10.2102ZM13.1701 10.1995L14.514 10.201V10.867H12.5898V11.6221H14.514V12.2908H12.5898V13.0515H14.514V13.7272H11.829V10.2011L13.1701 10.1995Z" fill="white"/>
<path id="Vector 9" d="M19.8511 10.7049H21.4119V10.1447L19.2909 10.1847L19.2108 11.8655L19.571 12.1456C20.1153 11.8255 20.5982 12.0122 20.7716 12.1456C20.945 12.2924 21.1317 12.6659 20.7316 13.0661C20.3141 13.4835 19.6377 13.0394 19.3709 12.7859L18.9707 13.2261C19.2508 13.5063 19.8111 13.7864 20.4514 13.7864C21.0917 13.7864 21.8121 13.026 21.5319 12.1456C21.2679 11.3157 20.278 11.3986 19.8111 11.5453L19.8511 10.7049Z" fill="white"/>
</g>
</svg>
